<svg xmlns="http://www.w3.org/2000/svg" width="25.432" height="25.432" viewBox="0 0 25.432 25.432">
  <path id="Icon_awesome-check-circle" data-name="Icon awesome-check-circle" d="M25.995,13.279A12.716,12.716,0,1,1,13.279.563,12.716,12.716,0,0,1,25.995,13.279ZM11.808,20.012l9.434-9.434a.82.82,0,0,0,0-1.16l-1.16-1.16a.82.82,0,0,0-1.16,0l-7.694,7.694L7.635,12.359a.82.82,0,0,0-1.16,0l-1.16,1.16a.82.82,0,0,0,0,1.16l5.333,5.333a.82.82,0,0,0,1.16,0Z" transform="translate(-0.563 -0.563)" fill="#e03c31"/>
</svg>
