<svg xmlns="http://www.w3.org/2000/svg" width="78.403" height="61.647" viewBox="0 0 78.403 61.647">
  <g id="Grupo_93" data-name="Grupo 93" transform="translate(1.5 1.5)">
    <g id="Grupo_92" data-name="Grupo 92" transform="translate(0 8.378)">
      <path id="Trazado_158" data-name="Trazado 158" d="M1066.153,340.305a18.153,18.153,0,1,1,10.925-32.625" transform="translate(-1041.018 -297.018)" fill="none" stroke="#f77d0c" stroke-linecap="round" stroke-miterlimit="10" stroke-width="3"/>
      <path id="Trazado_159" data-name="Trazado 159" d="M1069.474,290.059a25.135,25.135,0,1,0,0,38.151,22.425,22.425,0,0,1-5.415-4.6" transform="translate(-1028 -284)" fill="none" stroke="#f77d0c" stroke-linecap="round" stroke-miterlimit="10" stroke-width="3"/>
      <path id="Trazado_160" data-name="Trazado 160" d="M1077.077,307.68a18.147,18.147,0,1,0-4.751,31.537" transform="translate(-1041.018 -297.018)" fill="none" stroke="#f77d0c" stroke-linecap="round" stroke-miterlimit="10" stroke-width="3"/>
      <path id="Trazado_161" data-name="Trazado 161" d="M1121.339,370.473A22.235,22.235,0,0,1,1116,356" transform="translate(-1085.28 -330.866)" fill="none" stroke="#f77d0c" stroke-linecap="round" stroke-miterlimit="10" stroke-width="3"/>
      <path id="Trazado_162" data-name="Trazado 162" d="M1167.169,312a15.36,15.36,0,1,1-6.882,29.078" transform="translate(-1114.107 -302.226)" fill="none" stroke="#f77d0c" stroke-linecap="round" stroke-miterlimit="10" stroke-width="3"/>
      <path id="Trazado_163" data-name="Trazado 163" d="M1146.806,333.417a22.342,22.342,0,1,0,0-38.15,25.248,25.248,0,0,1,4.706,5.357" transform="translate(-1105.332 -289.207)" fill="none" stroke="#f77d0c" stroke-linecap="round" stroke-miterlimit="10" stroke-width="3"/>
      <path id="Trazado_164" data-name="Trazado 164" d="M1150.2,386.846a15.4,15.4,0,0,1-5.408-4.532" transform="translate(-1104.024 -347.994)" fill="none" stroke="#f77d0c" stroke-linecap="round" stroke-miterlimit="10" stroke-width="3"/>
      <path id="Trazado_165" data-name="Trazado 165" d="M1131.3,397.458a22.423,22.423,0,0,0,5.415,4.6" transform="translate(-1095.236 -357.851)" fill="none" stroke="#f77d0c" stroke-linecap="round" stroke-miterlimit="10" stroke-width="3"/>
      <path id="Trazado_166" data-name="Trazado 166" d="M1118.3,327.77a22.289,22.289,0,0,0,3.043,24.327" transform="translate(-1085.28 -312.49)" fill="none" stroke="#f77d0c" stroke-linecap="round" stroke-miterlimit="10" stroke-width="3"/>
      <path id="Trazado_167" data-name="Trazado 167" d="M1136.008,338.2a15.276,15.276,0,0,1,0-18.372,18.215,18.215,0,0,0-4.713-5.287" transform="translate(-1095.236 -303.88)" fill="none" stroke="#f77d0c" stroke-linecap="round" stroke-miterlimit="10" stroke-width="3"/>
      <path id="Trazado_168" data-name="Trazado 168" d="M1160.287,341.078a15.354,15.354,0,1,0,5.053-28.968" transform="translate(-1114.107 -302.226)" fill="none" stroke="#f77d0c" stroke-linecap="round" stroke-miterlimit="10" stroke-width="3"/>
      <path id="Trazado_169" data-name="Trazado 169" d="M1160.287,316.7a25,25,0,0,1,4.089,13.718" transform="translate(-1114.107 -305.287)" fill="none" stroke="#f77d0c" stroke-linecap="round" stroke-miterlimit="10" stroke-width="3"/>
      <path id="Trazado_170" data-name="Trazado 170" d="M1162.829,339.093a25.065,25.065,0,0,0-2.542-22.389" transform="translate(-1114.107 -305.287)" fill="none" stroke="#f77d0c" stroke-linecap="round" stroke-miterlimit="10" stroke-width="3"/>
      <path id="Trazado_171" data-name="Trazado 171" d="M1147.311,356a18.041,18.041,0,0,1-2.515,9.186,15.4,15.4,0,0,0,5.408,4.532" transform="translate(-1104.024 -330.866)" fill="none" stroke="#f77d0c" stroke-linecap="round" stroke-miterlimit="10" stroke-width="3"/>
      <path id="Trazado_172" data-name="Trazado 172" d="M1139.071,329.686a15.276,15.276,0,0,0,0,18.372,18.046,18.046,0,0,0,2.284-12.068" transform="translate(-1098.298 -313.738)" fill="none" stroke="#f77d0c" stroke-linecap="round" stroke-miterlimit="10" stroke-width="3"/>
    </g>
    <path id="Trazado_173" data-name="Trazado 173" d="M1165.407,271.171,1160,265.585l2.793-5.585h4.189" transform="translate(-1113.92 -260)" fill="none" stroke="#f77d0c" stroke-linecap="round" stroke-miterlimit="10" stroke-width="3"/>
    <path id="Trazado_174" data-name="Trazado 174" d="M1181.575,271.171l5.407-5.585L1184.189,260H1180" transform="translate(-1126.938 -260)" fill="none" stroke="#f77d0c" stroke-linecap="round" stroke-miterlimit="10" stroke-width="3"/>
  </g>
</svg>
