<svg xmlns="http://www.w3.org/2000/svg" width="64.287" height="64.641" viewBox="0 0 64.287 64.641">
  <g id="Grupo_95" data-name="Grupo 95" transform="translate(0)">
    <rect id="Rectángulo_42" data-name="Rectángulo 42" width="23.481" height="2.762" transform="translate(11.011 13.95)" fill="#f77d0c"/>
    <rect id="Rectángulo_43" data-name="Rectángulo 43" width="23.481" height="2.486" transform="translate(11.011 32.183)" fill="#f77d0c"/>
    <rect id="Rectángulo_44" data-name="Rectángulo 44" width="23.481" height="2.762" transform="translate(11.011 22.514)" fill="#f77d0c"/>
    <g id="Grupo_94" data-name="Grupo 94" transform="translate(0)">
      <path id="Trazado_175" data-name="Trazado 175" d="M208.721,169.288v-27.5a1.29,1.29,0,0,0-1.29-1.29h-43a1.29,1.29,0,0,0-1.29,1.29v62.061a1.29,1.29,0,0,0,1.29,1.29h43a1.29,1.29,0,0,0,1.29-1.29V183.879l13.7-21.765a3.993,3.993,0,0,1-.218,4.174l-5.348,8.495a1.29,1.29,0,1,0,2.185,1.373l5.345-8.495a6.369,6.369,0,0,0-.517-7.845l2.914-4.63a3.889,3.889,0,1,0-6.577-4.138Zm-11.649,24.3c-3.238-3.463-6.561-2.678-10.263-.967a6.844,6.844,0,0,1-3.171.975c-.044-.047,4.829-6.732,4.829-6.732a3.31,3.31,0,0,0-4-4.9c-4.888,1.812-5.86,6.187-4.141,10.9a4,4,0,0,1-1.912.9,1.976,1.976,0,0,1-1.671-.677,1.291,1.291,0,0,0-1.779,1.87,4.547,4.547,0,0,0,3.729,1.373,6.179,6.179,0,0,0,2.873-1.191c1.571,1.922,4.079.86,6.323-.177,2.685-1.238,4.6-2.318,7.635.76a1.942,1.942,0,0,0,2.782-.265c.417-.662.539-.8.6-1.138.87-.318,4.3-1.666,5.6-3.74l1.729-2.749v14.829H165.627V143.262h40.608v29.975l-8.307,13.2c-1.413,2.245-1.037,6.683-.856,7.149ZM182.415,190.8c-.681-3.073-.237-5.237,2.948-6.412.68-.257,1.487.27.751,1.345A57.454,57.454,0,0,1,182.415,190.8Zm19.906-1.6a7.5,7.5,0,0,1-2.845,2.072,7.464,7.464,0,0,1,.638-3.461l18.061-28.694,2.207,1.39Zm22.276-35.39-2.84,4.511-2.207-1.39,2.84-4.511a1.314,1.314,0,1,1,2.207,1.39Z" transform="translate(-163.141 -140.5)" fill="#f77d0c"/>
    </g>
  </g>
</svg>
