<svg id="Grupo_65" data-name="Grupo 65" xmlns="http://www.w3.org/2000/svg" width="42.332" height="42.688" viewBox="0 0 42.332 42.688">
  <g id="Grupo_64" data-name="Grupo 64">
    <path id="Trazado_113" data-name="Trazado 113" d="M955.491,362.626a1.036,1.036,0,0,0,.326-1.429l-1.672-2.653a1.037,1.037,0,1,0-1.755,1.1l1.672,2.653A1.036,1.036,0,0,0,955.491,362.626Z" transform="translate(-947.372 -356.642)" fill="#fff"/>
    <path id="Trazado_114" data-name="Trazado 114" d="M951.948,366.658a1.037,1.037,0,1,0,.46-2.022l-3.058-.695a1.037,1.037,0,1,0-.46,2.022Z" transform="translate(-948.083 -355.637)" fill="#fff"/>
    <path id="Trazado_115" data-name="Trazado 115" d="M953.86,370.049a1.037,1.037,0,0,0-1.429-.324l-2.653,1.671a1.037,1.037,0,1,0,1.1,1.755l2.653-1.671A1.036,1.036,0,0,0,953.86,370.049Z" transform="translate(-947.876 -354.668)" fill="#fff"/>
    <path id="Trazado_116" data-name="Trazado 116" d="M963.058,364.257a1.036,1.036,0,0,0,1.43.324l2.653-1.671a1.037,1.037,0,0,0-1.1-1.755l-2.653,1.671A1.038,1.038,0,0,0,963.058,364.257Z" transform="translate(-945.542 -356.138)" fill="#fff"/>
    <path id="Trazado_117" data-name="Trazado 117" d="M960.3,361.821a1.033,1.033,0,0,0,.459-.648l.695-3.058a1.037,1.037,0,1,0-2.022-.459l-.7,3.058a1.037,1.037,0,0,0,1.564,1.107Z" transform="translate(-946.26 -356.849)" fill="#fff"/>
    <path id="Trazado_118" data-name="Trazado 118" d="M979.835,368.913a3.606,3.606,0,0,0-3.4-.059,1.187,1.187,0,0,0-.107.06l-.183.115,0,0a3.454,3.454,0,0,0-.8.689,3.766,3.766,0,0,0-1.047-.411,3.693,3.693,0,0,0-2.808.472l0,0a3.87,3.87,0,0,0-1.054.979,3.74,3.74,0,0,0-4.073-.075l0,0a3.781,3.781,0,0,0-.842.729l-3.83-6.1a3.725,3.725,0,0,0-5.13-1.174h0a3.728,3.728,0,0,0-1.17,5.128l8.416,13.411a3.787,3.787,0,0,0-2.641.531,3.781,3.781,0,0,0-.33,6.153l7.137,5.662a12.631,12.631,0,0,0,1.5,1.186,12.692,12.692,0,0,0,13.854.224l.016-.011a12.812,12.812,0,0,0,1.743-1.317,12.564,12.564,0,0,0,3.192-4.493c.027-.063.054-.128.08-.192a12.685,12.685,0,0,0-1.023-11.5l-4.008-6.386A9.589,9.589,0,0,0,979.835,368.913Zm-10.444,11.544a.863.863,0,0,0,.391-1.253l-2.809-4.476a1.652,1.652,0,0,1,.574-2.136,1.482,1.482,0,0,1,2.034.465l3.212,5.118.016.027a.865.865,0,0,0,1.19.273h0a.863.863,0,0,0,.272-1.189l-2.184-3.5a1.609,1.609,0,0,1,.587-2.1h0a1.482,1.482,0,0,1,2.034.466l2.593,4.13a.863.863,0,0,0,1.073.334l.007,0a.863.863,0,0,0,.389-1.255l-1.628-2.585a1.745,1.745,0,0,1-.307-1.1.984.984,0,0,1,.5-.737l.145-.091c1.409-.676,3.061,1.518,3.923,2.894l4.008,6.386a10.5,10.5,0,0,1,.84,9.471c-.021.053-.042.105-.064.158a10.341,10.341,0,0,1-2.625,3.694,10.507,10.507,0,0,1-4.03,2.263,10.46,10.46,0,0,1-10.093-2.358c-.018-.015-.034-.03-.052-.044l-7.178-5.693a1.539,1.539,0,0,1-.248-2.152,1.532,1.532,0,0,1,2.152-.247l3.834,3.041a.864.864,0,0,0,1.269-1.136l-11.944-19.034a1.477,1.477,0,0,1,.463-2.033h0a1.477,1.477,0,0,1,2.034.465l8.541,13.61A.869.869,0,0,0,969.391,380.457Z" transform="translate(-946.93 -355.695)" fill="#fff"/>
  </g>
</svg>
