<svg xmlns="http://www.w3.org/2000/svg" width="49.379" height="78.404" viewBox="0 0 49.379 78.404">
  <g id="Grupo_91" data-name="Grupo 91" transform="translate(1.5 1.5)">
    <path id="Trazado_152" data-name="Trazado 152" d="M372.842,143.827a7.986,7.986,0,1,0-7.983-7.985A7.985,7.985,0,0,0,372.842,143.827Z" transform="translate(-359.66 -127.855)" fill="none" stroke="#f77d0c" stroke-linejoin="round" stroke-width="3"/>
    <path id="Trazado_153" data-name="Trazado 153" d="M385.155,149.619c-1.969-2.324-6-3.459-8.747-3.459h-5.745c-6.926,0-10.605,2.923-10.605,11l.036,15.7c0,2.334,2.043,4.187,4.925,4.187V197.17c0,2.5,1.433,4.523,3.884,4.523a4.331,4.331,0,0,0,4.253-4.523,4.3,4.3,0,0,0,4.217,4.523c2.453,0,3.945-2.025,3.945-4.523" transform="translate(-360.058 -126.338)" fill="none" stroke="#f77d0c" stroke-linejoin="round" stroke-width="3"/>
    <path id="Trazado_154" data-name="Trazado 154" d="M382.713,166.111c-.028.081-2.392,6.838-4.284,14.846a.836.836,0,0,0,.551,1.061,28.419,28.419,0,0,0,3.931.365c0,6.042-.009,13.531-.009,13.531,0,2.309,1.309,4.179,3.612,4.179a3.861,3.861,0,0,0,3.793-4.112,3.86,3.86,0,0,0,3.793,4.112c2.3,0,3.613-1.87,3.613-4.179,0,0-.007-7.489-.011-13.531a26.181,26.181,0,0,0,3.931-.365.878.878,0,0,0,.533-1.154c-1.924-7.973-4.283-14.718-4.31-14.8" transform="translate(-358.539 -124.689)" fill="none" stroke="#f77d0c" stroke-linejoin="round" stroke-width="3"/>
    <path id="Trazado_155" data-name="Trazado 155" d="M398.923,156.11a3.839,3.839,0,0,0,2.43-.836,4.379,4.379,0,0,0,.918-1.2c1.31-2.064.126-2.972-1.586-4.409-1.089-.912-2.122-1.747-3.069-1.747a1.585,1.585,0,0,0-1.081.437,5.135,5.135,0,0,0-.291,6.782A4.177,4.177,0,0,0,398.923,156.11Z" transform="translate(-357.171 -126.193)" fill="none" stroke="#f77d0c" stroke-linejoin="round" stroke-width="3"/>
    <ellipse id="Elipse_48" data-name="Elipse 48" cx="7.408" cy="7.408" rx="7.408" ry="7.408" transform="translate(24.825 4.439) rotate(-0.149)" fill="none" stroke="#f77d0c" stroke-linejoin="round" stroke-width="3"/>
    <path id="Trazado_156" data-name="Trazado 156" d="M397.144,149.63a6.012,6.012,0,0,0-2.99-.671H386.87c-3.765,0-5.113.879-6.871,6.531a169.585,169.585,0,0,0-4.054,16.941c0,.906,2.42,2.7,4.372,3.466" transform="translate(-358.742 -126.107)" fill="none" stroke="#f77d0c" stroke-linejoin="round" stroke-width="3"/>
    <path id="Trazado_157" data-name="Trazado 157" d="M398.717,175.326c2.174-.884,4.518-2.5,4.518-3.436,0,0-2.572-12.2-3.911-16.407" transform="translate(-356.855 -125.566)" fill="none" stroke="#f77d0c" stroke-linejoin="round" stroke-width="3"/>
  </g>
</svg>
