<?xml version="1.0" standalone="no"?>
<!DOCTYPE svg PUBLIC "-//W3C//DTD SVG 1.1//EN" "http://www.w3.org/Graphics/SVG/1.1/DTD/svg11.dtd" >
<svg>
<metadata>
Created by FontForge 20090914 at Wed Jul 21 23:17:11 2021
 By www-data
Copyright (c) 2012 by Rui Abreu, Portugal. All rights reserved.
</metadata>
<defs>
<font id="AzoSans-Bold" horiz-adv-x="561" >
  <font-face 
    font-family="Azo Sans"
    font-weight="700"
    font-stretch="normal"
    units-per-em="1000"
    panose-1="2 0 0 0 0 0 0 0 0 0"
    ascent="772"
    descent="-228"
    x-height="492"
    cap-height="724"
    bbox="-49.999 -243 1046 1021"
    underline-thickness="50"
    underline-position="-70"
    unicode-range="U+0020-U+00FE"
  />
<missing-glyph horiz-adv-x="364" 
d="M33 0v666h265v-666h-265zM66 33h199v600h-199v-600z" />
    <glyph glyph-name=".notdef" horiz-adv-x="364" 
d="M33 0v666h265v-666h-265zM66 33h199v600h-199v-600z" />
    <glyph glyph-name="space" unicode=" " horiz-adv-x="237" 
 />
    <glyph glyph-name="exclam" unicode="!" horiz-adv-x="292" 
d="M58 76c0 32.667 14.333 57.667 43 75c14 8 29 12 45 12c32.667 0 57.667 -14 75 -42c8.66699 -14 13 -29 13 -45c0 -32.667 -14.333 -57.667 -43 -75c-14 -8 -29 -12 -45 -12c-32.667 0 -57.667 14 -75 42c-8.66699 14 -13 29 -13 45zM95 241l-37 483h176l-37 -483h-102z
" />
    <glyph glyph-name="quotedbl" unicode="&#x22;" horiz-adv-x="374" 
d="M51 460l-21 282h128l-21 -282h-86zM237 460l-21 282h128l-21 -282h-86z" />
    <glyph glyph-name="numbersign" unicode="#" horiz-adv-x="634" 
d="M57 0l59 206h-107l27 93h107l36 126h-107l27 93h107l59 206h100l-59 -206h112l59 206h100l-59 -206h107l-27 -93h-107l-36 -126h107l-27 -93h-107l-59 -206h-100l59 206h-112l-59 -206h-100zM243 299h112l36 126h-112z" />
    <glyph glyph-name="dollar" unicode="$" horiz-adv-x="597" 
d="M243 -76l0.00292969 127.001c-60.667 8.66699 -111.667 23.334 -153 44.001v148c61.333 -39.333 125.666 -61.333 192.999 -66c6.66699 -0.666992 12.667 -1 18 -1c54 0.666992 81.333 20 82 58c0 22.667 -15 39.667 -45 51c-9.33301 3.33301 -26.333 8 -51 14
c-20.667 5.33301 -36.667 9.66602 -48 12.999c-84.667 24.667 -137.334 61.667 -158.001 111c-8 19.333 -12 41 -12 65c0 69.333 30.667 121.333 92 156c24.667 14 52 23.667 82 29v127h117v-126c56 -8 105.667 -22.667 149 -44v-145c-62 38.667 -126 60 -192 64h-14
c-50.667 -0.666992 -76.334 -18 -77.001 -52c0 -21.333 14.333 -37 43 -47c8.66699 -2.66699 23.667 -6.66699 45 -12l52 -14c86 -25.333 139.667 -62.666 161 -111.999c8.66699 -20.667 13 -43.334 13 -68.001c0 -76.667 -33.667 -132.334 -101 -167.001
c-24 -12 -50.333 -20.333 -79 -25v-128h-117z" />
    <glyph glyph-name="percent" unicode="%" horiz-adv-x="931" 
d="M223 361c-68.667 0 -119.334 26.667 -152.001 80c-18.667 30.667 -28 66.334 -28 107.001c0 68.667 24 120 72 154c30.667 22 66.667 33 108 33c68.667 0 119.334 -26.667 152.001 -80c18.667 -30.667 28 -66.334 28 -107.001c0 -68.667 -24 -120 -72 -154
c-30.667 -22 -66.667 -33 -108 -33zM178 0l473 724h102l-473 -724h-102zM223 454c32.667 0 55.667 16.667 69 50c5.33301 14 8 28.667 8 44c0 40 -13.667 68 -41 84c-11.333 6.66699 -23.333 10 -36 10c-32.667 0 -55.667 -16.667 -69 -50c-5.33301 -14 -8 -28.667 -8 -44
c0 -40 13.667 -68 41 -84c11.333 -6.66699 23.333 -10 36 -10zM528 176c0 68.667 24 120 72 154c30.667 22 66.667 33 108 33c68.667 0 119.334 -26.667 152.001 -80c18.667 -30.667 28 -66.334 28 -107.001c0 -68.667 -24 -120 -72 -154c-30.667 -22 -66.667 -33 -108 -33
c-68.667 0 -119.334 26.667 -152.001 80c-18.667 30.667 -28 66.334 -28 107.001zM631 176c0 -40 13.667 -68 41 -84c11.333 -6.66699 23.333 -10 36 -10c32.667 0 55.667 16.667 69 50c5.33301 14 8 28.667 8 44c0 40 -13.667 68 -41 84c-11.333 6.66699 -23.333 10 -36 10
c-32.667 0 -55.667 -16.667 -69 -50c-5.33301 -14 -8 -28.667 -8 -44z" />
    <glyph glyph-name="ampersand" unicode="&#x26;" horiz-adv-x="712" 
d="M539 434l154.001 0.00195312l-114 -268l162 -164l-1 -2h-187l-54 54c-48.667 -43.333 -115 -65 -199 -65c-105.333 0 -181.333 32.667 -228 98c-24.667 34.667 -37 73 -37 115c0 75.333 40 135.333 120 180l14 7l-9 9c-47.333 49.333 -71.333 100.666 -72 153.999
c0 59.333 25 107 75 143c39.333 27.333 85.666 41 138.999 41c74 0 131.333 -24.333 172 -73c27.333 -32.667 41 -69.667 41 -111c0 -64.667 -33 -119.334 -99 -164.001c-2 -1.33301 -3.33301 -2.33301 -4 -3l-29 -19l91 -94zM304.001 118.002
c42.667 0.666992 74.333 13.333 95 38l-141 142l-13 -6c-35.333 -20.667 -54.333 -48.667 -57 -84c0 -33.333 15.667 -58.333 47 -75c19.333 -10 42.333 -15 69 -15zM238 546.001c0.666992 -21.333 12.667 -44.333 36 -69l20 -21l27 20
c28.667 22.667 43.334 45.667 44.001 69c0 28 -12.667 47 -38 57c-8.66699 2.66699 -17.334 4 -26.001 4c-30.667 0 -50.667 -13 -60 -39c-2 -7.33301 -3 -14.333 -3 -21z" />
    <glyph glyph-name="quotesingle" unicode="'" horiz-adv-x="188" 
d="M51 460l-21 282h128l-21 -282h-86z" />
    <glyph glyph-name="parenleft" unicode="(" horiz-adv-x="373" 
d="M68 265c0 182.667 43.333 334.668 130 456.001l17 22h141c-80.667 -104.667 -129.334 -231.667 -146.001 -381c-3.33301 -32 -5 -64.333 -5 -97c0 -164 40 -308.333 120 -433c10 -16 20.333 -31 31 -45h-141c-87.333 109.333 -135.666 249.333 -144.999 420
c-1.33301 19.333 -2 38.666 -2 57.999z" />
    <glyph glyph-name="parenright" unicode=")" horiz-adv-x="373" 
d="M17 -213c80.667 104.667 129.334 231.666 146.001 380.999c3.33301 32 5 64.333 5 97c0 164 -40 308.333 -120 433c-10 16 -20.333 31 -31 45h141c87.333 -109.333 135.666 -249.333 144.999 -420c1.33301 -19.333 2 -38.666 2 -57.999
c0 -182.667 -43.333 -334.667 -130 -456l-17 -22h-141z" />
    <glyph glyph-name="asterisk" unicode="*" horiz-adv-x="450" 
d="M196 584l-18 142h93l-18 -142h-57zM282 521l-17 55l131 60l28 -88zM167 521l-142 27l28 88l131 -60zM301 348l-69 126l47 33l97 -104zM148 348l-75 55l97 104l47 -33z" />
    <glyph glyph-name="plus" unicode="+" horiz-adv-x="600" 
d="M241 116v191h-187v110h187v191h118v-191h187v-110h-187v-191h-118z" />
    <glyph glyph-name="comma" unicode="," horiz-adv-x="306" 
d="M42 -147l56 300h139l-90 -300h-105z" />
    <glyph glyph-name="hyphen" unicode="-" horiz-adv-x="339" 
d="M46 215v124h247v-124h-247z" />
    <glyph glyph-name="period" unicode="." horiz-adv-x="306" 
d="M61 79c0 33.333 14.667 59 44 77c15.333 8.66699 31.333 13 48 13c34 0 60 -14.333 78 -43c9.33301 -14.667 14 -30.334 14 -47.001c0 -33.333 -14.667 -59 -44 -77c-15.333 -8.66699 -31.333 -13 -48 -13c-34 0 -60 14.333 -78 43
c-9.33301 14.667 -14 30.334 -14 47.001z" />
    <glyph glyph-name="slash" unicode="/" horiz-adv-x="466" 
d="M6 -38l338 800h116l-338 -800h-116z" />
    <glyph glyph-name="zero" unicode="0" horiz-adv-x="628" 
d="M314 -11c-79.333 0 -142.999 28.668 -190.999 86.001c-3.33301 4 -6.33301 8 -9 12c-44 61.333 -66 153 -66 275c0 122.667 22 214.334 66 275.001c44 60 105 92.667 183 98h17c82.667 0 148 -30.667 196 -92c1.33301 -2.66699 2.66602 -4.66699 3.99902 -6
c44 -61.333 66 -153 66 -275c0 -122.667 -22 -214.334 -66 -275.001c-52 -62.667 -118.667 -95.334 -200 -98.001zM314.001 131.001c30 0.666992 54.334 13.666 73.001 38.999c22.667 33.333 34 97.666 34 192.999c0 94.667 -11.333 158.334 -34 191.001
c-18.667 25.333 -43 38.333 -73 39c-30.667 -0.666992 -55 -13.667 -73 -39c-22.667 -33.333 -34 -97.666 -34 -192.999s11.333 -159 34 -191c19.333 -25.333 43.666 -38.333 72.999 -39z" />
    <glyph glyph-name="one" unicode="1" horiz-adv-x="517" 
d="M212 0v533l-147 -53v144l306 111v-735h-159z" />
    <glyph glyph-name="two" unicode="2" horiz-adv-x="582" 
d="M17 2l220.998 292c56 74.667 89.333 127.334 100 158.001c5.33301 16 8 31.333 8 46c0 46 -21.333 75.667 -64 89c-14 4 -28.667 6 -44 6c-57.333 -0.666992 -113.666 -22.334 -168.999 -65.001v149c54.667 38.667 116 58 184 58c84.667 0 151.334 -26.333 200.001 -79
c36 -40 54 -88 54 -144c0 -62 -28 -133.333 -84 -214l-30 -42l-87 -115l1 -2h226v-139h-515z" />
    <glyph glyph-name="three" unicode="3" horiz-adv-x="570" 
d="M48 45l0.00488281 152.999c75.333 -46 142.333 -69 201 -69c56 0 91.667 18 107 54c4 10.667 6 21.667 6 33c0 51.333 -35 79.333 -105 84c-6.66699 0.666992 -13.334 1 -20.001 1h-72v120h68c64 0 101.333 21.333 112 64c2 8 3 15.667 3 23
c0 41.333 -20.667 68.333 -62 81c-14 4 -29.333 6 -46 6c-48.667 0 -98.334 -14 -149.001 -42v142c44.667 26.667 98.334 40 161.001 40c85.333 0 152.666 -25 201.999 -75c35.333 -36 53 -78 53 -126c0 -56.667 -22 -101.334 -66 -134.001
c-12.667 -10 -26.334 -17.667 -41.001 -23v-2c60.667 -20.667 98.667 -60.667 114 -120c4.66699 -16.667 7 -33.667 7 -51c0 -69.333 -30.333 -124.666 -91 -165.999c-48.667 -32.667 -106.334 -49 -173.001 -49c-76.667 0 -142.334 16 -197.001 48
c-4.66699 2.66699 -8.66699 5.33398 -12 8.00098z" />
    <glyph glyph-name="four" unicode="4" horiz-adv-x="655" 
d="M1 155l-1 2l369 567h141v-448h110v-121h-110v-155h-158v155h-351zM220 276h135v105c0 28 0.666992 64.333 2 109l-2 1c-17.333 -29.333 -39 -64 -65 -104l-71 -109z" />
    <glyph glyph-name="five" unicode="5" horiz-adv-x="567" 
d="M43 33l11 142.001c61.333 -30.667 120.333 -46 177 -46c64 0 106 17.333 126 52c6 11.333 9 23.666 9 36.999c0 54 -48.667 86.667 -146 98c-20.667 2 -41.667 3 -63 3c-30.667 0 -59 -2 -85 -6l30 411h395l-10 -139h-237l-11 -144c99.333 -2.66699 175.333 -29 228 -79
c38.667 -38 58 -85.333 58 -142c0 -79.333 -33.667 -140.333 -101 -183c-50.667 -32 -112 -48 -184 -48c-75.333 0 -139.333 13.667 -192 41c-2 1.33301 -3.66699 2.33301 -5 3z" />
    <glyph glyph-name="six" unicode="6" horiz-adv-x="626" 
d="M289 724l185.004 0.000976562l-191 -283l1 -1c21.333 10 46.666 15 75.999 15c67.333 0 122.666 -25 165.999 -75c36.667 -42 55 -92 55 -150c0 -75.333 -29.667 -136.333 -89 -183c-50 -38.667 -110.333 -58 -181 -58c-88.667 0 -158.334 28.333 -209.001 85
c-40 45.333 -60 101.333 -60 168c0 62.667 21.667 130 65 202c7.33301 13.333 15.666 26.666 24.999 39.999zM205.004 230.001c0 -38.667 15.666 -68.332 46.999 -88.999c18.667 -12.667 39.334 -19 62.001 -19c40.667 0 71.667 15.667 93 47
c11.333 17.333 17 36.666 17 57.999c0 40 -16.667 70 -50 90c-18 10.667 -37.667 16 -59 16c-42 0 -73.333 -16 -94 -48c-10.667 -16.667 -16 -35 -16 -55z" />
    <glyph glyph-name="seven" unicode="7" horiz-adv-x="568" 
d="M92 0l237 585h-288v139h510l1 -2l-293 -722h-167z" />
    <glyph glyph-name="eight" unicode="8" horiz-adv-x="644" 
d="M322 432c37.333 0 64.999 13.999 82.999 41.999c8.66699 14 13 29 13 45c0 33.333 -15.667 58.333 -47 75c-15.333 7.33301 -31.666 11 -48.999 11c-38 0 -66 -14.333 -84 -43c-8 -13.333 -12 -27.666 -12 -42.999c0 -33.333 15.333 -58.333 46 -75
c16 -8 32.667 -12 50 -12zM321.999 119.999c44 0 76 16.333 96 49c9.33301 15.333 14 32 14 50c0 38 -17 66.667 -51 86c-18 10 -37.667 15 -59 15c-41.333 0 -72.666 -15.667 -93.999 -47c-10.667 -16.667 -16 -34.667 -16 -54c0 -38 17.333 -66.333 52 -85
c17.333 -9.33301 36.666 -14 57.999 -14zM321.999 -11.001c-92 0 -164 26.334 -216 79.001c-38 39.333 -57 86 -57 140c0 65.333 26 116 78 152c14 9.33301 28.667 17 44 23v2c-51.333 20 -83 56.667 -95 110c-2.66699 12.667 -4 25.334 -4 38.001
c0 63.333 28 114.666 84 153.999c46.667 32 102 48 166 48c81.333 0 146.333 -24.333 195 -73c36.667 -36.667 55 -79.667 55 -129c0 -58 -22.667 -102 -68 -132c-10 -6.66699 -20.333 -12 -31 -16v-2c60.667 -22.667 99 -63.334 115 -122.001c4.66699 -17.333 7 -35 7 -53
c0 -72 -31.333 -128.667 -94 -170c-49.333 -32.667 -109 -49 -179 -49z" />
    <glyph glyph-name="nine" unicode="9" horiz-adv-x="614" 
d="M334 0l-184 -0.00195312l171 276l-1 2c-17.333 -6 -38 -9 -62 -9c-62.667 0 -116 22.333 -160 67c-41.333 42.667 -62 94.334 -62 155.001c0 76.667 29.667 138.334 89 185.001c50.667 38.667 111 58 181 58c86 0 154.667 -27 206 -81c41.333 -44.667 62 -99.667 62 -165
c0 -63.333 -25.667 -138.333 -77 -225l-10 -16zM302 392.998c43.333 0 75 17 95 51c9.33301 16 14 33 14 51c0 36.667 -15.333 66 -46 88c-18.667 12.667 -39.667 19 -63 19c-40.667 0 -71.667 -15.667 -93 -47c-11.333 -18 -17 -37.333 -17 -58
c0 -38.667 16.333 -68 49 -88c18 -10.667 38.333 -16 61 -16z" />
    <glyph glyph-name="colon" unicode=":" horiz-adv-x="306" 
d="M153 331c-32 0 -56.333 13.667 -73 41c-8.66699 14 -13 29 -13 45c0 32 13.667 56.333 41 73c14 8.66699 29 13 45 13c32 0 56.333 -13.667 73 -41c8.66699 -14 13 -29 13 -45c0 -32 -13.667 -56.333 -41 -73c-14 -8.66699 -29 -13 -45 -13zM67 75
c0 32 13.667 56.333 41 73c14 8.66699 29 13 45 13c32 0 56.333 -13.667 73 -41c8.66699 -14 13 -29 13 -45c0 -32 -13.667 -56.333 -41 -73c-14 -8.66699 -29 -13 -45 -13c-32 0 -56.333 13.667 -73 41c-8.66699 14 -13 29 -13 45z" />
    <glyph glyph-name="semicolon" unicode=";" horiz-adv-x="306" 
d="M42 -147l56 300h139l-90 -300h-105zM153 331c-32 0 -56.333 13.667 -73 41c-8.66699 14 -13 29 -13 45c0 32 13.667 56.333 41 73c14 8.66699 29 13 45 13c32 0 56.333 -13.667 73 -41c8.66699 -14 13 -29 13 -45c0 -32 -13.667 -56.333 -41 -73
c-14 -8.66699 -29 -13 -45 -13z" />
    <glyph glyph-name="less" unicode="&#x3c;" horiz-adv-x="716" 
d="M82 322v80l552 212v-116l-351 -135v-2l351 -135v-116z" />
    <glyph glyph-name="equal" unicode="=" horiz-adv-x="600" 
d="M54 417v109h492v-109h-492zM54 198v109h492v-109h-492z" />
    <glyph glyph-name="greater" unicode="&#x3e;" horiz-adv-x="716" 
d="M82 110v116l351 135v2l-351 135v116l552 -212v-80z" />
    <glyph glyph-name="question" unicode="?" horiz-adv-x="514" 
d="M132 223l-24 177.999c134.667 0.666992 202.334 34.667 203.001 102c0 36.667 -16.333 62.667 -49 78c-14.667 6.66699 -31 10 -49 10c-43.333 -0.666992 -89.333 -16.667 -138 -48l-19 142c44.667 30.667 97.667 47.334 159 50.001h11c78.667 0 142 -26 190 -78
c36.667 -40.667 55 -88 55 -142c0 -68.667 -28.333 -125 -85 -169c-34.667 -26.667 -72.334 -42.667 -113.001 -48v-75h-141zM128 75.999c0 32.667 14.333 57.667 43 75c14 8 29 12 45 12c32.667 0 57.667 -14 75 -42c8.66699 -14 13 -29 13 -45
c0 -32.667 -14.333 -57.667 -43 -75c-14 -8 -29 -12 -45 -12c-32.667 0 -57.667 14 -75 42c-8.66699 14 -13 29 -13 45z" />
    <glyph glyph-name="at" unicode="@" horiz-adv-x="795" 
d="M23 246c0 106 35.335 194.67 106.002 266.003c72 71.333 161.667 107 269 107s196.666 -35.667 267.999 -107c68.667 -73.333 104 -159.333 106 -258c0 -92 -29 -153 -87 -183c-22.667 -11.333 -48 -17 -76 -17c-54 0.666992 -94.667 17.667 -122 51h-2
c-32.667 -34.667 -73.667 -52 -123 -52c-57.333 0 -101 23 -131 69c-19.333 30.667 -29 65.667 -29 105c0 63.333 21 116 63 158c36 36 79.667 54 131 54c36 -0.666992 68 -10.334 96 -29.001l83 13l-18 -199c-0.666992 -7.33301 -1 -15.333 -1 -24c0 -40 13.667 -65 41 -75
c7.33301 -2 14.666 -3 21.999 -3c38.667 0 64 23.333 76 70c4.66699 17.333 7 36.666 7 57.999c0 84.667 -27.667 156 -83 214c-58 60 -131.333 90 -220 90c-97.333 0 -175.333 -34.667 -234 -104c-48 -58 -72 -126.333 -72 -205c0 -87.333 28.667 -160.333 86 -219
s129.666 -88 216.999 -88c78.667 0.666992 147 24 205 70l36 -57c-67.333 -52 -146.666 -78 -237.999 -78c-108.667 0 -198.667 36 -270 108c-70.667 71.333 -106 159.666 -106 264.999zM379.002 136.003c33.333 0.666992 59.668 14.001 79.001 40.001
c-1.33301 12 -1 29.667 1 53l9 100c-20.667 17.333 -43.334 26.333 -68.001 27c-38 0 -66 -21.333 -84 -64c-8.66699 -20.667 -13 -42 -13 -64c0 -44.667 15.333 -73.334 46 -86.001c9.33301 -4 19.333 -6 30 -6z" />
    <glyph glyph-name="A" unicode="A" horiz-adv-x="748" 
d="M3 0l294 724h154l294 -724h-170l-58 152h-292l-59 -152h-163zM303 354l-29 -77h195l-30 81l-66 184h-2z" />
    <glyph glyph-name="B" unicode="B" horiz-adv-x="639" 
d="M66 0l-0.00195312 723.999h211c200.667 -0.666992 301.334 -62 302.001 -184c-0.666992 -69.333 -37 -117.333 -109 -144v-2c91.333 -27.333 137.333 -85.666 138 -174.999c0 -104.667 -58.667 -172 -176 -202c-43.333 -11.333 -93.666 -17 -150.999 -17h-215z
M224.998 423.999h84.001c68 0 104.667 23.333 110 70c0.666992 4 1 8 1 12c0 37.333 -18 61.333 -54 72c-22.667 6.66699 -53.334 10 -92.001 10h-49v-164zM224.999 135.999l58.999 -0.000976562c82.667 0 133.334 13 152.001 39c8.66699 12.667 13 29.667 13 51
c-1.33301 58.667 -44.333 88.334 -129 89.001h-95v-179z" />
    <glyph glyph-name="C" unicode="C" horiz-adv-x="681" 
d="M35 361c0 105.333 36.0029 193.332 108.003 263.999c74.667 73.333 170 110 286 110c73.333 0 140.333 -15 201 -45v-161c-62 42 -128.667 63 -200 63c-80 0 -142.333 -28 -187 -84c-32.667 -41.333 -49 -89.666 -49 -144.999c0 -75.333 27.333 -135 82 -179
c43.333 -34.667 96.666 -52 159.999 -52c71.333 0.666992 139.666 23 204.999 67v-162c-60.667 -32 -131.334 -48 -212.001 -48c-118 0 -214.333 37 -289 111c-70 70 -105 157 -105 261z" />
    <glyph glyph-name="D" unicode="D" horiz-adv-x="743" 
d="M66 0l0.000976562 724h203c201.333 0 334.666 -59.333 399.999 -178c28.667 -52 43 -113 43 -183c0 -161.333 -70.333 -269.333 -211 -324c-66 -26 -145.667 -39 -239 -39h-196zM225.001 139l44 0.000976562c188 2 282.667 76.667 284 224
c0 77.333 -26.667 135.666 -80 174.999c-2 1.33301 -3.33301 2.33301 -4 3c-42 29.333 -109 44 -201 44h-43v-446z" />
    <glyph glyph-name="E" unicode="E" 
d="M66 0v724h447v-139h-288v-142h248v-132h-248v-172h299v-139h-458z" />
    <glyph glyph-name="F" unicode="F" horiz-adv-x="566" 
d="M66 0v724h459v-139h-300v-156h258v-132h-258v-297h-159z" />
    <glyph glyph-name="G" unicode="G" horiz-adv-x="736" 
d="M35 359c0 106.667 36.334 195.334 109.001 266.001c76 73.333 171.667 110 287 110c82 0 156 -18.333 222 -55v-160c-70 48 -143 72 -219 72c-82.667 0 -146.667 -29.333 -192 -88c-32 -41.333 -48 -89.333 -48 -144c0 -73.333 26 -132.333 78 -177
c44 -36.667 97.667 -55 161 -55c34 0 63.667 5.33301 89 16v109h-126v132h280v-336c-72.667 -40 -154.667 -60 -246 -60c-118.667 0 -215.334 37 -290.001 111c-70 69.333 -105 155.666 -105 258.999z" />
    <glyph glyph-name="H" unicode="H" horiz-adv-x="763" 
d="M66 0v724h159v-280h313v280h159v-724h-159v305h-313v-305h-159z" />
    <glyph glyph-name="I" unicode="I" horiz-adv-x="291" 
d="M66 0v724h159v-724h-159z" />
    <glyph glyph-name="J" unicode="J" horiz-adv-x="404" 
d="M179 235v489h159v-486c0 -82.667 -16 -143.667 -48 -183c-36.667 -44 -93.334 -66 -170.001 -66c-40 0 -75.667 6.33301 -107 19v143c32.667 -12.667 63.334 -19 92.001 -19c35.333 0 57.333 12.333 66 37c5.33301 14.667 8 36.667 8 66z" />
    <glyph glyph-name="K" unicode="K" horiz-adv-x="674" 
d="M66 0v724h159v-320l2 -1l253 321h189l-274 -336l297 -388h-196l-269 362l-2 -1v-361h-159z" />
    <glyph glyph-name="L" unicode="L" horiz-adv-x="555" 
d="M66 0v724h159v-585h317v-139h-476z" />
    <glyph glyph-name="M" unicode="M" horiz-adv-x="866" 
d="M430 167l-105 149l-106 155l-2 -1c1.33301 -69.333 2 -129.333 2 -180v-290h-153v724h153l215 -306l215 306h151v-724h-159v290c0 51.333 0.666992 111.333 2 180l-2 1l-106 -155z" />
    <glyph glyph-name="N" unicode="N" horiz-adv-x="788" 
d="M572 0l-217 292l-136 187l-2 -1c1.33301 -92 2 -161.667 2 -209v-269h-153v724h150l217 -292l136 -187l2 1c-1.33301 92 -2 161.667 -2 209v269h153v-724h-150z" />
    <glyph glyph-name="O" unicode="O" horiz-adv-x="824" 
d="M412 133c68.667 0 124.667 26.333 168 79c34 43.333 51 93.333 51 150c0 72 -25.333 130.333 -76 175c-40.667 36 -88.334 54 -143.001 54c-68.667 0 -124.667 -26.333 -168 -79c-34 -43.333 -51 -93.333 -51 -150c0 -72 25.333 -130.333 76 -175
c40.667 -36 88.334 -54 143.001 -54zM412 -11c-106 0 -195 35 -267 105c-72 75.333 -109 164.666 -111 267.999c0 104 35 191.333 105 262c76.667 71.333 167.667 108.333 273 111c106 0 195 -35 267 -105c72 -75.333 109 -164.666 111 -267.999
c0 -104 -35 -191.333 -105 -262c-76.667 -71.333 -167.667 -108.333 -273 -111z" />
    <glyph glyph-name="P" unicode="P" horiz-adv-x="639" 
d="M66 0l-0.00195312 724.001h215c220.667 -1.33301 331.334 -78.333 332.001 -231c0 -128.667 -75.333 -204.334 -226 -227.001c-33.333 -4.66699 -70.666 -7 -111.999 -7h-50v-259h-159zM224.998 388.001h57.999c86.667 0 139.667 15.333 159 46c8 13.333 12 30.333 12 51
c0 46 -21 75.333 -63 88c-25.333 8 -62.666 12 -111.999 12h-54v-197z" />
    <glyph glyph-name="Q" unicode="Q" horiz-adv-x="824" 
d="M639 -168c-82.667 38 -160.666 90.333 -233.999 157c-106 2 -194.667 38.667 -266 110c-70 71.333 -105 159 -105 263s35 191.333 105 262c76.667 71.333 167.667 108.333 273 111c106 0 195 -35 267 -105c72 -75.333 109 -164.666 111 -267.999
c0 -104 -35 -191.333 -105 -262c-30.667 -30.667 -65.334 -55.334 -104.001 -74.001v-2c62 -40 129.667 -75.667 203 -107zM412.001 133c68.667 0 124.667 26.333 168 79c34 43.333 51 93.333 51 150c0 72 -25.333 130.333 -76 175c-40.667 36 -88.334 54 -143.001 54
c-68.667 0 -124.667 -26.333 -168 -79c-34 -43.333 -51 -93.333 -51 -150c0 -72 25.333 -130.333 76 -175c40.667 -36 88.334 -54 143.001 -54z" />
    <glyph glyph-name="R" unicode="R" horiz-adv-x="653" 
d="M66 0v724.001h227c207.333 -1.33301 311.333 -74 312 -218c0 -76.667 -30 -134.334 -90 -173.001c-17.333 -11.333 -36.333 -20.333 -57 -27l204 -306h-183l-183 286h-71v-286h-159zM225 405.001h80c82 0 128.333 22 139 66c1.33301 8 2 16 2 24
c0 42 -21.667 68.667 -65 80c-24 6.66699 -55.667 10 -95 10h-61v-180z" />
    <glyph glyph-name="S" unicode="S" horiz-adv-x="576" 
d="M61 40l-0.000976562 160.001c64.667 -41.333 133 -65 205 -71c8 -0.666992 15.333 -1 22 -1c58.667 0 92 20 100 60c0.666992 6 1 11.667 1 17c0 30 -17 52.667 -51 68c-5.33301 2 -38 12.333 -98 31c-4.66699 1.33301 -8.66699 2.66602 -12 3.99902
c-83.333 27.333 -138.333 63.666 -165 108.999c-16.667 28.667 -25 61.667 -25 99c0 80.667 32.667 140.667 98 180c43.333 26 95.333 39 156 39c78 0 148.667 -15.667 212 -47c3.33301 -2 6.33301 -3.66699 9 -5v-157c-65.333 40.667 -133 63.667 -203 69
c-6.66699 0.666992 -13 1 -19 1c-59.333 -4 -90.333 -26.667 -93 -68c0 -28.667 16.333 -50 49 -64c2.66699 -1.33301 33.334 -11.333 92.001 -30c4.66699 -1.33301 9 -2.66602 13 -3.99902c85.333 -28 142 -64.667 170 -110c18 -30 27 -65 27 -105
c0 -84.667 -34.333 -147 -103 -187c-44.667 -26 -98 -39 -160 -39c-80.667 0 -154.667 16.667 -222 50c-1.33301 0.666992 -2.33301 1 -3 1z" />
    <glyph glyph-name="T" unicode="T" horiz-adv-x="657" 
d="M249 0v585h-234v139h627v-139h-234v-585h-159z" />
    <glyph glyph-name="U" unicode="U" horiz-adv-x="749" 
d="M113 107c-36 54 -54.001 134 -54.001 240v377h159v-371c0 -95.333 16.667 -158 50 -188c25.333 -22 62 -33 110 -33c70 0 116.333 26.667 139 80c13.333 33.333 20 80 20 140v372h153v-373c0 -111.333 -18.667 -193.333 -56 -246c-46 -66 -117.333 -104 -214 -114
c-15.333 -1.33301 -30.666 -2 -45.999 -2c-104.667 0 -185 31 -241 93c-7.33301 8 -14 16.333 -20 25z" />
    <glyph glyph-name="V" unicode="V" horiz-adv-x="707" 
d="M274 0l-277 724h171l116 -318c26.667 -72 50 -137.667 70 -197h2l72 198l119 317h163l-276 -724h-160z" />
    <glyph glyph-name="W" unicode="W" horiz-adv-x="1053" 
d="M228 0l-220.999 724h167l92 -311c18 -60 35.333 -122.333 52 -187h2c17.333 64 35.666 126.667 54.999 188l96 310h116l95 -310c22 -71.333 40.333 -134 55 -188h2c16.667 64 34.667 127.333 54 190l93 308h160l-223 -724h-168l-78 255
c-19.333 61.333 -36.333 119 -51 173h-2c-14.667 -53.333 -32 -112 -52 -176l-78 -252h-166z" />
    <glyph glyph-name="X" unicode="X" horiz-adv-x="694" 
d="M-17 0l264 387.001l-227 337h186l65 -99l80 -125h1l79 124l65 100h178l-227 -337l265 -387h-189l-103 155c-16 23.333 -41.333 62.666 -76 117.999h-2l-75 -117l-103 -156h-181z" />
    <glyph glyph-name="Y" unicode="Y" horiz-adv-x="689" 
d="M266 0v327l-279 397h185l88 -131l87 -133h2l87 134l87 130h179l-277 -396v-328h-159z" />
    <glyph glyph-name="Z" unicode="Z" horiz-adv-x="650" 
d="M8 2l343 581l-1 2h-310v139h572l1 -2l-343 -581l1 -2h333v-139h-595z" />
    <glyph glyph-name="bracketleft" unicode="[" horiz-adv-x="362" 
d="M215 -104h105v-109h-245v956h245v-109h-105v-738z" />
    <glyph glyph-name="backslash" unicode="\" horiz-adv-x="466" 
d="M344 -38l-338 800h116l338 -800h-116z" />
    <glyph glyph-name="bracketright" unicode="]" horiz-adv-x="362" 
d="M42 -104h105v738h-105v109h245v-956h-245v109z" />
    <glyph glyph-name="asciicircum" unicode="^" horiz-adv-x="559" 
d="M51 362l177 373h103l177 -373h-118l-110 220h-1l-110 -220h-118z" />
    <glyph glyph-name="underscore" unicode="_" horiz-adv-x="504" 
d="M0 -83h504v-66h-504v66z" />
    <glyph glyph-name="grave" unicode="`" horiz-adv-x="532" 
d="M244 563l-116 164h136l84 -164h-104z" />
    <glyph glyph-name="a" unicode="a" horiz-adv-x="537" 
d="M203 -11c-45.333 0.666992 -83.333 11.3359 -114 32.0029c-38 27.333 -57.333 65.666 -58 114.999c0.666992 52 20.667 91.667 60 119c34.667 23.333 80.667 35 138 35c30 0 58.333 -3 85 -9v19c-0.666992 23.333 -7 40.666 -19 51.999c-16 14 -41.333 21 -76 21
c-48 0 -96 -13 -144 -39v131c51.333 25.333 108.666 38 171.999 38c71.333 -0.666992 126 -16.334 164 -47.001c36.667 -30.667 55 -76 55 -136v-167c1.33301 -25.333 11.333 -38.333 30 -39c8.66699 0 17 2 25 6v-114c-19.333 -10 -43.666 -15 -72.999 -15
c-45.333 0.666992 -80.666 13.667 -105.999 39h-2c-38.667 -27.333 -84.334 -41 -137.001 -41zM245 101.002c24.667 0 47.667 6.66797 69 20.001v72c-15.333 4.66699 -33.333 7 -54 7c-48.667 -4 -74.667 -20.667 -78 -50c0 -24.667 14 -40.334 42 -47.001
c7.33301 -1.33301 14.333 -2 21 -2z" />
    <glyph glyph-name="b" unicode="b" horiz-adv-x="605" 
d="M63 -6l0.000976562 770h152v-294l2 -1c34.667 22.667 75 34 121 34c68.667 0 125.667 -25.333 171 -76c40.667 -46.667 61 -104 61 -172c0 -86 -30 -154.333 -90 -205c-48.667 -40.667 -107.334 -61 -176.001 -61c-41.333 0 -82 8.33301 -122 25zM215.001 131
c23.333 -12.667 49.334 -19 78.001 -19c53.333 0 90.333 23.667 111 71c8.66699 20 13 41.667 13 65c0 52.667 -18.667 90 -56 112c-18.667 10.667 -39.334 16 -62.001 16c-29.333 0 -57.333 -8 -84 -24v-221z" />
    <glyph glyph-name="c" unicode="c" horiz-adv-x="512" 
d="M33 245c0 82 31.998 147.666 95.998 196.999c52 40.667 114 61 186 61c53.333 0 102 -11 146 -33v-141c-48.667 30.667 -95 46 -139 46c-53.333 0 -92.666 -20 -117.999 -60c-12.667 -20.667 -19 -43.667 -19 -69c0 -49.333 20.667 -85.666 62 -108.999
c22.667 -12.667 48.334 -19 77.001 -19c52.667 0.666992 100.667 17 144 49v-140c-46 -25.333 -99.667 -38 -161 -38c-87.333 0 -157.333 28.667 -210 86c-42.667 47.333 -64 104 -64 170z" />
    <glyph glyph-name="d" unicode="d" horiz-adv-x="606" 
d="M36 236c0 84 29 151.667 87 203c48.667 42.667 106.334 64 173.001 64c34 0 65 -6 93 -18l2 1v278h152v-764h-149v26l-2 1c-36.667 -25.333 -78.334 -38 -125.001 -38c-69.333 0 -126.333 25.667 -171 77c-40 46 -60 102.667 -60 170zM189 243
c0 -54 18.667 -92.001 56 -114.001c18 -10.667 38.333 -16 61 -16c30.667 0 59 8.33301 85 25v220c-26 12.667 -52.333 19 -79 19c-53.333 0 -90.333 -23.333 -111 -70c-8 -19.333 -12 -40.666 -12 -63.999z" />
    <glyph glyph-name="e" unicode="e" 
d="M522 206l-334.001 -0.000976562c14 -56.667 52.667 -89 116 -97c9.33301 -1.33301 18.333 -2 27 -2c58 0.666992 113.667 18.667 167 54v-127c-48.667 -29.333 -111 -44.333 -187 -45c-93.333 0 -166.333 29.333 -219 88c-40 46 -60 101.667 -60 167
c0 84 30.667 151 92 201c48 38.667 103.333 58 166 58c74.667 0 134.334 -25.667 179.001 -77c37.333 -44 56 -100 56 -168c0 -21.333 -1 -38.666 -3 -51.999zM287.999 386.999c-42 0 -72.333 -18.667 -91 -56c-4 -9.33301 -7.33301 -19 -10 -29h198
c-6.66699 41.333 -28 68 -64 80c-10.667 3.33301 -21.667 5 -33 5z" />
    <glyph glyph-name="f" unicode="f" horiz-adv-x="372" 
d="M90 0v365.999h-70v126h70v73c0.666992 76.667 18 131.334 52 164.001c32 30.667 78.333 46 139 46c31.333 0 59.333 -4.66699 84 -14v-123c-22.667 6 -44.667 9 -66 9c-33.333 0 -52 -17 -56 -51c-0.666992 -6.66699 -1 -13.667 -1 -21v-83h114v-126h-114v-366h-152z" />
    <glyph glyph-name="g" unicode="g" horiz-adv-x="599" 
d="M103 -195l0.000976562 144c54 -33.333 107 -50 159 -50c63.333 0 101.666 24.667 114.999 74c3.33301 12 5 24.333 5 37v27l-2 1c-30.667 -22 -69 -33 -115 -33c-67.333 0 -123.333 24.667 -168 74c-40.667 45.333 -61 101 -61 167c0 80 27.667 144.667 83 194
c47.333 42 105 63 173 63c44 0 85 -9.33301 123 -28l119 21v-486c0 -96 -37.333 -164.667 -112 -206c-42 -23.333 -92.333 -35 -151 -35c-62.667 0 -118.667 12 -168 36zM190.001 252c0 -52 19 -88.334 57 -109.001c17.333 -9.33301 36.666 -14 57.999 -14
c28.667 0.666992 54.334 7.66699 77.001 21v206c-23.333 12 -48.333 18 -75 18c-52 0 -87.333 -22.333 -106 -67c-7.33301 -17.333 -11 -35.666 -11 -54.999z" />
    <glyph glyph-name="h" unicode="h" horiz-adv-x="600" 
d="M63 0l0.000976562 764.002h152v-316l2 -1c45.333 37.333 95.333 56 150 56c54 -0.666992 97 -17.334 129 -50.001c28.667 -31.333 43 -80 43 -146v-307h-152v282c-0.666992 32.667 -6.33398 55.667 -17.001 69c-12.667 14 -30 21 -52 21
c-34 -0.666992 -68.333 -14.334 -103 -41.001v-331h-152z" />
    <glyph glyph-name="i" unicode="i" horiz-adv-x="278" 
d="M51 648c0 32.667 14.333 57.667 43 75c14 8 29 12 45 12c32.667 0 57.667 -14 75 -42c8.66699 -14 13 -29 13 -45c0 -32.667 -14.333 -57.667 -43 -75c-14 -8 -29 -12 -45 -12c-32.667 0 -57.667 14 -75 42c-8.66699 14 -13 29 -13 45zM63 0v492h152v-492h-152z" />
    <glyph glyph-name="j" unicode="j" horiz-adv-x="281" 
d="M54 648c0 32.667 14.333 57.667 43 75c14 8 29 12 45 12c32.667 0 57.667 -14 75 -42c8.66699 -14 13 -29 13 -45c0 -32.667 -14.333 -57.667 -43 -75c-14 -8 -29 -12 -45 -12c-32.667 0 -57.667 14 -75 42c-8.66699 14 -13 29 -13 45zM66 -24l0.000976562 516.001h152
v-506c0 -76.667 -14 -130.334 -42 -161.001l-3 -3c-34.667 -35.333 -84.334 -53 -149.001 -53c-26 0 -49 2.66699 -69 8v125c18 -3.33301 34.667 -5 50 -5c32.667 0 52 13 58 39c2 10.667 3 24 3 40z" />
    <glyph glyph-name="k" unicode="k" horiz-adv-x="581" 
d="M63 0v764h152v-480l2 -1l172 209h173l-188 -220l202 -272h-180l-179 251l-2 -1v-250h-152z" />
    <glyph glyph-name="l" unicode="l" horiz-adv-x="278" 
d="M63 0v764h152v-764h-152z" />
    <glyph glyph-name="m" unicode="m" horiz-adv-x="912" 
d="M699 0l-0.000976562 284c-0.666992 32 -6.66699 54.333 -18 67c-13.333 14 -30.666 21 -51.999 21c-34 -0.666992 -66.333 -14.334 -97 -41.001c0.666992 -5.33301 1 -12.666 1 -21.999v-309h-152v284c-0.666992 32 -6.66699 54.333 -18 67
c-13.333 14 -30.666 21 -51.999 21c-32.667 -0.666992 -64.667 -14 -96 -40v-332h-152v492h150v-44l2 -1c44.667 37.333 94 56 148 56s96.333 -16.333 127 -49c6.66699 -7.33301 12 -14.333 16 -21c53.333 46.667 111 70 173 70c53.333 -0.666992 95.666 -17 126.999 -49
c30 -32 45 -80.333 45 -145v-309h-152z" />
    <glyph glyph-name="n" unicode="n" horiz-adv-x="600" 
d="M63 0l0.000976562 492.002h150v-45l2 -1c47.333 38 98 57 152 57c54 -0.666992 97 -17.334 129 -50.001c28.667 -31.333 43 -80 43 -146v-307h-152v282c-0.666992 32.667 -6.33398 55.667 -17.001 69c-12.667 14 -30 21 -52 21
c-34 -0.666992 -68.333 -14.334 -103 -41.001v-331h-152z" />
    <glyph glyph-name="o" unicode="o" horiz-adv-x="612" 
d="M184 246c0 -44.667 17.333 -79.334 52 -104.001c21.333 -14.667 44.666 -22 69.999 -22c43.333 0 77 18 101 54c14 22 21 46 21 72c0 44.667 -17.333 79.334 -52 104.001c-21.333 14.667 -44.666 22 -69.999 22c-43.333 0 -77 -18 -101 -54c-14 -22 -21 -46 -21 -72z
M32 246c0 77.333 29 141 87 191c52 44 114.333 66 187 66c84.667 0 153.667 -28.667 207 -86c44.667 -48 67 -105 67 -171c0 -77.333 -29 -141 -87 -191c-52 -44 -114.333 -66 -187 -66c-84.667 0 -153.667 28.667 -207 86c-44.667 48 -67 105 -67 171z" />
    <glyph glyph-name="p" unicode="p" horiz-adv-x="604" 
d="M215 7v-227h-152v712h149v-25l2 -1c36.667 24.667 77.334 37 122.001 37c70 0 127.667 -26.333 173 -79c40 -47.333 60 -105.333 60 -174c0 -88 -31 -156.667 -93 -206c-46 -36.667 -100.667 -55 -164 -55c-36.667 0 -68.334 6.33301 -95.001 19zM215 131
c24.667 -12.667 50.667 -19 78 -19c53.333 0 90 22.333 110 67c8.66699 19.333 13 40.333 13 63c0 52.667 -18 91 -54 115c-19.333 12.667 -41 19 -65 19c-30 -0.666992 -57.333 -9.66699 -82 -27v-218z" />
    <glyph glyph-name="q" unicode="q" horiz-adv-x="606" 
d="M36 239c0 84.667 29.666 152.332 88.999 202.999c48 40.667 106 61 174 61c46 0 89.667 -10.333 131 -31l113 20v-712h-152v238l-2 1c-35.333 -20 -74 -30 -116 -30c-73.333 0 -132.666 26.667 -177.999 80c-39.333 46.667 -59 103.334 -59 170.001zM188.999 242.998
c0 -52.667 18.333 -90.667 55 -114c18.667 -11.333 40 -17 64 -17c31.333 0.666992 59 9 83 25v220c-28 12.667 -54.667 19 -80 19c-52 0 -88.333 -22.667 -109 -68c-8.66699 -20 -13 -41.667 -13 -65z" />
    <glyph glyph-name="r" unicode="r" horiz-adv-x="401" 
d="M63 0l-0.000976562 492h149v-66l2 -1c35.333 48 83 72.333 143 73c12 0 22.667 -1.33301 32 -4v-143c-13.333 3.33301 -27 5 -41 5c-55.333 -0.666992 -99.666 -20 -132.999 -58v-298h-152z" />
    <glyph glyph-name="s" unicode="s" horiz-adv-x="494" 
d="M51 29l-0.000976562 133.002c58.667 -34 119 -52.667 181 -56h11c44 0.666992 66.333 13.334 67 38.001c0 16 -12.333 27.333 -37 34c-6.66699 1.33301 -19 3.66602 -37 6.99902c-23.333 4.66699 -41.666 8.66699 -54.999 12c-80 20 -127.333 53.667 -142 101
c-4 13.333 -6 27.333 -6 42c0.666992 63.333 31.667 109.666 93 138.999c35.333 16 76 24 122 24c71.333 0 134 -13 188 -39v-131c-56.667 32 -114.667 49.667 -174 53h-11c-42 -0.666992 -63.333 -12.334 -64 -35.001c0 -15.333 12.667 -26.333 38 -33l35 -7
c22.667 -4 40.334 -7.66699 53.001 -11c75.333 -18.667 122 -47.667 140 -87c7.33301 -16.667 11 -35.667 11 -57c-0.666992 -66.667 -33.334 -114.667 -98.001 -144c-35.333 -15.333 -76.333 -23 -123 -23c-72.667 0 -136.667 13.333 -192 40z" />
    <glyph glyph-name="t" unicode="t" horiz-adv-x="410" 
d="M143 38c-28.667 32 -42.999 81 -42.999 147v181h-80v126h80v128l152 26v-154h130v-126h-130v-165c5.33301 -52.667 24.333 -80.667 57 -84c22 0 46.333 6.66699 73 20v-121c-28 -18 -65 -27 -111 -27c-54.667 0.666992 -97.334 17 -128.001 49z" />
    <glyph glyph-name="u" unicode="u" horiz-adv-x="605" 
d="M110 38c-31.333 33.333 -47 83.666 -47 150.999v303h152v-280c0.666992 -34 7 -57.667 19 -71c13.333 -14.667 31.333 -22 54 -22c36 0.666992 69.333 15.334 100 44.001v329h152v-492h-150v46l-2 1c-45.333 -38.667 -95.333 -58 -150 -58
c-54 0.666992 -96.667 17 -128 49z" />
    <glyph glyph-name="v" unicode="v" horiz-adv-x="557" 
d="M206 0l-200 492h160l58 -158l55 -156h2l59 157l61 157h150l-200 -492h-145z" />
    <glyph glyph-name="w" unicode="w" horiz-adv-x="828" 
d="M180 0l-167.998 492h158l50 -155c16 -50 30.333 -97.333 43 -142h2c13.333 43.333 28.666 90.666 45.999 141.999l53 155h113l52 -155c17.333 -51.333 32.333 -98.666 45 -141.999h2c10.667 38 25 85.333 43 142l50 155h147l-168 -492h-142l-44 131
c-16.667 49.333 -31.334 96.333 -44.001 141h-2c-12 -41.333 -27 -88 -45 -140l-45 -132h-146z" />
    <glyph glyph-name="x" unicode="x" horiz-adv-x="543" 
d="M-8 0l190 263l-168 229h169l37 -55l54 -83h2l54 82l38 56h159l-167 -228l191 -264h-174l-57 85l-53 82h-2l-53 -82l-57 -85h-163z" />
    <glyph glyph-name="y" unicode="y" horiz-adv-x="558" 
d="M232 -220h-155l129 274l-200 438h160l51 -122l63 -156h2l67 159l52 119h151z" />
    <glyph glyph-name="z" unicode="z" horiz-adv-x="495" 
d="M467 0h-452l-1 2l221 362l-1 2h-198v126h436l1 -2l-221 -362l1 -2h214v-126z" />
    <glyph glyph-name="braceleft" unicode="{" horiz-adv-x="374" 
d="M114 -61l0.000976562 200.004c0 36 -9.66699 57.667 -29 65c-10 4 -22.333 6 -37 6h-29v110h29c34 0 54.667 11.333 62 34c2.66699 9.33301 4 21.666 4 36.999v200c0 76.667 31.333 126.667 94 150c23.333 8.66699 49.666 13 78.999 13c25.333 0 48 -2 68 -6v-107
c-10 2.66699 -22.667 4 -38 4c-34.667 0 -54.667 -14.333 -60 -43c-2 -8.66699 -3 -18.334 -3 -29.001v-176c0 -61.333 -15 -101.333 -45 -120c-7.33301 -4.66699 -15.333 -8.33398 -24 -11.001v-2c37.333 -12 59.333 -40.333 66 -85c2 -14 3 -29.333 3 -46v-176
c0 -40 13.333 -63.333 40 -70c7.33301 -1.33301 15 -2 23 -2c15.333 0 28 1.33301 38 4v-107c-20 -4 -42.667 -6 -68 -6c-86 0 -140.333 33 -163 99c-6.66699 19.333 -10 40.666 -10 63.999z" />
    <glyph glyph-name="bar" unicode="|" horiz-adv-x="321" 
d="M102 -220v1020h117v-1020h-117z" />
    <glyph glyph-name="braceright" unicode="}" horiz-adv-x="374" 
d="M120 -43l-0.000976562 175.996c0 61.333 15 101.333 45 120c7.33301 4.66699 15.333 8.33398 24 11.001v2c-37.333 12 -59.333 40.333 -66 85c-2 14 -3 29.333 -3 46v176c0 40 -13.333 63.333 -40 70c-7.33301 1.33301 -15 2 -23 2c-15.333 0 -28 -1.33301 -38 -4v107
c20 4 42.667 6 68 6c86 0 140.333 -33 163 -99c6.66699 -19.333 10 -40.666 10 -63.999v-200c0 -36 9.66699 -57.667 29 -65c10 -4 22.333 -6 37 -6h29v-110h-29c-34 0 -54.667 -11.333 -62 -34c-2.66699 -9.33301 -4 -21.666 -4 -36.999v-200
c0 -76.667 -31.333 -126.667 -94 -150c-23.333 -8.66699 -49.666 -13 -78.999 -13c-25.333 0 -48 2 -68 6v107c10 -2.66699 22.667 -4 38 -4c34.667 0 54.667 14.333 60 43c2 8.66699 3 18.334 3 29.001z" />
    <glyph glyph-name="asciitilde" unicode="~" horiz-adv-x="556" 
d="M382 272c-30 0 -68.334 11 -115.001 33c-44 20 -75.667 30.333 -95 31c-36.667 -0.666992 -68 -20.334 -94 -59.001l-2 1v137c26.667 24.667 59.334 37 98.001 37c30 0 68.333 -11 115 -33c40 -18.667 68.333 -29 85 -31h10c38 0.666992 69.333 20.334 94 59.001l2 -1
v-137c-25.333 -24.667 -58 -37 -98 -37z" />
    <glyph glyph-name="uni00A0" unicode="&#xa0;" horiz-adv-x="237" 
 />
    <glyph glyph-name="exclamdown" unicode="&#xa1;" horiz-adv-x="292" 
d="M197 251l37 -483h-176l37 483h102zM234 416c0 -32.667 -14.333 -57.667 -43 -75c-14 -8 -29 -12 -45 -12c-32.667 0 -57.667 14 -75 42c-8.66699 14 -13 29 -13 45c0 32.667 14.333 57.667 43 75c14 8 29 12 45 12c32.667 0 57.667 -14 75 -42c8.66699 -14 13 -29 13 -45
z" />
    <glyph glyph-name="cent" unicode="&#xa2;" horiz-adv-x="516" 
d="M223 -18l-0.000976562 132c-76.667 20 -131.667 62.667 -165 128c-18.667 36 -28 75 -28 117c0 81.333 31 147 93 197c30 23.333 63.333 40 100 50v136h117v-125c46.667 -4.66699 86 -15.334 118 -32.001v-141c-49.333 30.667 -95.666 46 -138.999 46
c-54 0 -93.333 -20 -118 -60c-12.667 -20.667 -19 -43.667 -19 -69c0 -49.333 20.667 -85.666 62 -108.999c22.667 -12.667 48.334 -19 77.001 -19c52.667 0.666992 100.667 17 144 49v-140c-32.667 -19.333 -74.334 -31.333 -125.001 -36v-124h-117z" />
    <glyph glyph-name="sterling" unicode="&#xa3;" horiz-adv-x="590" 
d="M55 295l0.000976562 116.001h43c-12 38.667 -18 72.667 -18 102c0 76 31 135 93 177c46 30 100.333 45 163 45c70.667 0 131.334 -17 182.001 -51v-154c-57.333 41.333 -114 62 -170 62c-50.667 0 -84.334 -17.333 -101.001 -52c-5.33301 -12.667 -8 -26 -8 -40
c0 -20.667 6 -50.334 18 -89.001h165v-116h-136c2 -12 3 -23.333 3 -34c-0.666992 -50.667 -19.334 -90.667 -56.001 -120v-2h311v-139h-489v116c55.333 28 83.333 72.667 84 134c0 14 -1.66699 29 -5 45h-79z" />
    <glyph glyph-name="currency" unicode="&#xa4;" horiz-adv-x="598" 
d="M198 350c0 -42.667 16.333 -73.667 49 -93c15.333 -9.33301 32.666 -14 51.999 -14c41.333 0 71 17.667 89 53c8 16.667 12 34.667 12 54c0 42.667 -16.333 73.667 -49 93c-15.333 9.33301 -32.666 14 -51.999 14c-41.333 0 -71 -17.667 -89 -53
c-8 -16.667 -12 -34.667 -12 -54zM85 350c0 36 7.33301 69 22 99l-78 79l91 91l78 -79c30 15.333 63.667 23 101 23c38 0 71.667 -7.66699 101 -23l78 79l91 -91l-78 -79c14.667 -30.667 22 -63.667 22 -99c0 -36 -7.33301 -69 -22 -99l78 -79l-91 -91l-78 79
c-30 -15.333 -63.667 -23 -101 -23c-38 0 -71.667 7.66699 -101 23l-78 -79l-91 91l78 79c-14.667 30.667 -22 63.667 -22 99z" />
    <glyph glyph-name="yen" unicode="&#xa5;" horiz-adv-x="694" 
d="M93 390v102h81l-163 232h184l67 -99l87 -133h2l87 134l66 98h178l-163 -232h83v-102h-154l-21 -30v-52h175v-103h-175v-205h-159v205h-175v103h175v51l-22 31h-153z" />
    <glyph glyph-name="brokenbar" unicode="&#xa6;" horiz-adv-x="321" 
d="M102 408v392h117v-392h-117zM102 172h117v-392h-117v392z" />
    <glyph glyph-name="section" unicode="&#xa7;" horiz-adv-x="583" 
d="M114 11c56 -28.667 105.665 -43 148.998 -43c40.667 0 65.334 13 74.001 39c2 5.33301 3 10.666 3 15.999c0 23.333 -17 44 -51 62c-9.33301 4.66699 -25.666 12 -48.999 22c-18.667 8 -33 14.333 -43 19c-69.333 32.667 -113.666 69 -132.999 109
c-9.33301 20 -14 41.667 -14 65c0 64 29.667 110 89 138c2 0.666992 3.33301 1.33398 4 2.00098v2c-30.667 30 -46 67 -46 111c0 64 28.333 112.667 85 146c38.667 22.667 82.667 34 132 34c55.333 0 103.666 -11 144.999 -33v-129c-48.667 26 -93 39 -133 39
c-38.667 0 -63 -12 -73 -36c-2.66699 -6.66699 -4 -13 -4 -19c0 -23.333 17.667 -44 53 -62c10 -4.66699 26.667 -12 50 -22c14.667 -6 25.667 -10.667 33 -14c69.333 -30.667 114.333 -64.667 135 -102c12.667 -22.667 19 -48 19 -76c0 -62 -27.333 -108 -82 -138
c-3.33301 -2 -6.33301 -3.66699 -9 -5v-2c29.333 -30 44 -66 44 -108c0 -66 -30 -115.667 -90 -149c-39.333 -21.333 -85.333 -32 -138 -32c-51.333 0 -101.333 11.333 -150 34v132zM391.998 271c0 24 -18 45 -54 63c-1.33301 0.666992 -27.333 12 -78 34
c-41.333 -13.333 -62.333 -33.333 -63 -60c0 -25.333 19.667 -47.666 59 -66.999c9.33301 -4.66699 24.666 -11.334 45.999 -20.001c12.667 -6 22.334 -10.333 29.001 -13c40 13.333 60.333 34.333 61 63z" />
    <glyph glyph-name="dieresis" unicode="&#xa8;" horiz-adv-x="532" 
d="M154 571c-29.333 0 -51.666 13 -66.999 39c-6.66699 12 -10 24.667 -10 38c0 29.333 13 51.666 39 66.999c12 6.66699 24.667 10 38 10c29.333 0 51.666 -13 66.999 -39c6.66699 -12 10 -24.667 10 -38c0 -29.333 -13 -51.666 -39 -66.999
c-12 -6.66699 -24.667 -10 -38 -10zM378 571c-29.333 0 -51.666 13 -66.999 39c-6.66699 12 -10 24.667 -10 38c0 29.333 13 51.666 39 66.999c12 6.66699 24.667 10 38 10c29.333 0 51.666 -13 66.999 -39c6.66699 -12 10 -24.667 10 -38
c0 -29.333 -13 -51.666 -39 -66.999c-12 -6.66699 -24.667 -10 -38 -10z" />
    <glyph glyph-name="copyright" unicode="&#xa9;" horiz-adv-x="798" 
d="M24 362c0 104 35 191.667 105 263c74.667 71.333 164.667 108 270 110c106 0 194.667 -35.333 266 -106c70.667 -74 107 -163 109 -267c0 -104 -35 -191.667 -105 -263c-74.667 -71.333 -164.667 -108 -270 -110c-106 0 -194.667 35.333 -266 106
c-70.667 74 -107 163 -109 267zM88 362c0 -94 31.333 -170.667 94 -230c58.667 -55.333 131 -83 217 -83c97.333 0 175.666 33.667 234.999 101c50.667 58.667 76 129.334 76 212.001c0 94 -31.333 170.667 -94 230c-58.667 55.333 -131 83 -217 83
c-97.333 0 -175.666 -33.667 -234.999 -101c-50.667 -58.667 -76 -129.334 -76 -212.001zM199 366c0 68.667 26.334 122.666 79.001 161.999c39.333 28.667 84.666 43 135.999 43c47.333 -0.666992 87.666 -11 120.999 -31v-97c-38 25.333 -75.667 38 -113 38
c-47.333 0 -81.666 -18.333 -102.999 -55c-10.667 -18 -16 -37.667 -16 -59c0 -44 18.333 -76.333 55 -97c19.333 -10.667 41 -16 65 -16c42.667 0.666992 81.667 13.667 117 39v-97c-34 -22 -77 -33 -129 -33c-71.333 0 -127.333 25 -168 75
c-29.333 36.667 -44 79.334 -44 128.001z" />
    <glyph glyph-name="ordfeminine" unicode="&#xaa;" horiz-adv-x="377" 
d="M156 401c-30 0.666992 -55.3359 8.00098 -76.0029 22.001c-25.333 19.333 -38.333 44.333 -39 75c0.666992 31.333 14 56.666 40 75.999c23.333 16 53 24 89 24c18.667 0 36.334 -2.33301 53.001 -7v11c-1.33301 28 -21 42.333 -59 43c-31.333 0 -62.333 -8 -93 -24v91
c32.667 15.333 70.334 23 113.001 23c45.333 -0.666992 81.333 -11 108 -31c24.667 -20.667 37 -50.334 37 -89.001v-103c1.33301 -16 7.33301 -24.333 18 -25c5.33301 0.666992 11 2.33398 17 5.00098v-79c-13.333 -7.33301 -30.666 -11 -51.999 -11
c-30 0.666992 -53.333 9 -70 25h-2c-24 -17.333 -52 -26 -84 -26zM181.997 477.001c16 0.666992 29.667 4.33203 41 10.999v43c-9.33301 2.66699 -20.333 4 -33 4c-30 -0.666992 -45.333 -10.667 -46 -30c2 -17.333 14.667 -26.666 38 -27.999z" />
    <glyph glyph-name="guillemotleft" unicode="&#xab;" horiz-adv-x="577" 
d="M185 27l-163 219l163 219h122l-162 -219l162 -219h-122zM416 27l-163 219l163 219h122l-162 -219l162 -219h-122z" />
    <glyph glyph-name="logicalnot" unicode="&#xac;" horiz-adv-x="600" 
d="M54 307v110h492v-301h-117v191h-375z" />
    <glyph glyph-name="uni00AD" unicode="&#xad;" horiz-adv-x="339" 
d="M46 215v124h247v-124h-247z" />
    <glyph glyph-name="registered" unicode="&#xae;" horiz-adv-x="441" 
d="M221 363c-64 0 -114 23.667 -150 71c-25.333 33.333 -38 71.666 -38 114.999c0 62.667 23.667 112 71 148c33.333 25.333 72.333 38 117 38c64 0 114 -23.667 150 -71c25.333 -33.333 38 -71.666 38 -114.999c0 -62.667 -23.667 -112 -71 -148
c-33.333 -25.333 -72.333 -38 -117 -38zM221 399c56.667 0 98.667 22 126 66c16 24.667 24 52.667 24 84c0 54.667 -20.667 96 -62 124c-25.333 17.333 -54.666 26 -87.999 26c-56.667 0 -98.667 -22 -126 -66c-16 -24.667 -24 -52.667 -24 -84
c0 -54.667 20.667 -96 62 -124c25.333 -17.333 54.666 -26 87.999 -26zM256 448l-39 71h-20v-71h-50v202h79c36 0 60 -12.667 72 -38c4 -8.66699 6 -18 6 -28c-0.666992 -26.667 -13.667 -45.667 -39 -57l48 -79h-57zM197 555h23.999c20.667 1.33301 31.334 10 32.001 26
c-1.33301 16 -12 24.333 -32 25h-24v-51z" />
    <glyph glyph-name="macron" unicode="&#xaf;" horiz-adv-x="532" 
d="M113 595v100h306v-100h-306z" />
    <glyph glyph-name="degree" unicode="&#xb0;" horiz-adv-x="353" 
d="M176 441c-53.333 0 -94.666 20.667 -123.999 62c-18 25.333 -27 53.666 -27 84.999c0 50.667 20.333 90.334 61 119.001c26.667 18.667 56.667 28 90 28c53.333 0 94.666 -20.667 123.999 -62c18 -25.333 27 -53.666 27 -84.999c0 -50.667 -20.333 -90.334 -61 -119.001
c-26.667 -18.667 -56.667 -28 -90 -28zM176 503c34 0 59 14.333 75 43c7.33301 13.333 11 27.333 11 42c0 32 -13.667 56.333 -41 73c-14 8 -29 12 -45 12c-34 0 -59 -14.333 -75 -43c-7.33301 -13.333 -11 -27.333 -11 -42c0 -32 13.667 -56.333 41 -73
c14 -8 29 -12 45 -12z" />
    <glyph glyph-name="plusminus" unicode="&#xb1;" horiz-adv-x="600" 
d="M241 238v161h-170v110h170v161h118v-161h170v-110h-170v-161h-118zM71 64v109h458v-109h-458z" />
    <glyph glyph-name="two.superior" unicode="&#xb2;" horiz-adv-x="375" 
d="M9 422l-1.00195 2l139 175c40 53.333 60.667 91.333 62 114c-4 28 -22.333 43 -55 45c-35.333 -0.666992 -72.666 -13.667 -111.999 -39v106c42 25.333 84.333 38 127 38c71.333 0 119.333 -24.333 144 -73c10 -20 15 -41.667 15 -65c0 -42 -21 -89.667 -63 -143
c-1.33301 -2 -2.66602 -3.66699 -3.99902 -5l-41 -50l1 -2h120v-103h-332z" />
    <glyph glyph-name="three.superior" unicode="&#xb3;" horiz-adv-x="367" 
d="M36 452l-0.00292969 107.998c44 -28.667 84.667 -43 122 -43c40.667 0.666992 61.334 14.334 62.001 41.001c-1.33301 24.667 -24.666 37.334 -69.999 38.001h-46v84h43c42.667 0.666992 64.334 14 65.001 40c0 21.333 -14 34.333 -42 39c-6 1.33301 -12.333 2 -19 2
c-30 0 -63 -8.66699 -99 -26v101c34 18 71.333 27 112 27c62 0 108.667 -18.333 140 -55c17.333 -20 26 -42.333 26 -67c0 -39.333 -18 -68.333 -54 -87c-3.33301 -1.33301 -6.33301 -2.66602 -9 -3.99902v-2c46 -21.333 70 -55 72 -101c0 -48.667 -25 -85.334 -75 -110.001
c-30 -14.667 -63 -22 -99 -22c-47.333 0 -90.333 12.333 -129 37z" />
    <glyph glyph-name="acute" unicode="&#xb4;" horiz-adv-x="532" 
d="M404 727l-116 -164h-104l84 164h136z" />
    <glyph glyph-name="mu" unicode="&#xb5;" horiz-adv-x="604" 
d="M227 -220l-162.001 -0.000976562v712h152v-280c0.666992 -34 7 -57.667 19 -71c13.333 -14.667 31.333 -22 54 -22c36 0.666992 69.333 15.334 100 44.001v329h152v-492h-150v46l-2 1c-36 -34 -77 -53 -123 -57c-4 -0.666992 -8 -1 -12 -1
c-17.333 0 -31.666 2.33301 -42.999 7l-2 -1z" />
    <glyph glyph-name="paragraph" unicode="&#xb6;" horiz-adv-x="609" 
d="M225 -220v581.999c-57.333 0 -104.333 22 -141 66c-28 34 -42 72.333 -42 115c0 56.667 22.333 103.334 67 140.001c34 27.333 72.667 41 116 41h306v-944h-116v843h-74v-843h-116z" />
    <glyph glyph-name="periodcentered" unicode="&#xb7;" horiz-adv-x="306" 
d="M61 302c0 33.333 14.667 59 44 77c15.333 8.66699 31.333 13 48 13c34 0 60 -14.333 78 -43c9.33301 -14.667 14 -30.334 14 -47.001c0 -33.333 -14.667 -59 -44 -77c-15.333 -8.66699 -31.333 -13 -48 -13c-34 0 -60 14.333 -78 43
c-9.33301 14.667 -14 30.334 -14 47.001z" />
    <glyph glyph-name="cedilla" unicode="&#xb8;" horiz-adv-x="532" 
d="M214 -87l41 128.002l56 -13l-21 -65c52 -10.667 81 -36.334 87 -77.001c0.666992 -4.66699 1 -9.33398 1 -14.001c0 -40 -19.333 -67.667 -58 -83c-16.667 -6.66699 -35 -10 -55 -10c-30 0 -59 6.33301 -87 19l21 66c24.667 -12.667 46.334 -19 65.001 -19
c24 2 37 10.667 39 26c-0.666992 24 -30.334 38 -89.001 42z" />
    <glyph glyph-name="one.superior" unicode="&#xb9;" horiz-adv-x="331" 
d="M129 422v299l-91 -31v103l206 70v-441h-115z" />
    <glyph glyph-name="ordmasculine" unicode="&#xba;" horiz-adv-x="403" 
d="M201 401c-63.333 0 -112 22.333 -146 67c-22 29.333 -33 62.666 -33 99.999c0 57.333 23 102 69 134c32 22 69 33 111 33c63.333 0 112 -22.333 146 -67c22 -29.333 33 -62.666 33 -99.999c0 -57.333 -23 -102 -69 -134c-32 -22 -69 -33 -111 -33zM202 494
c30.667 0 51.667 13.666 63 40.999c4 10.667 6 21.334 6 32.001c0 32.667 -13 55.334 -39 68.001c-10 4.66699 -20.333 7 -31 7c-30.667 0 -51.667 -13.667 -63 -41c-4 -10.667 -6 -21.334 -6 -32.001c0 -33.333 13.333 -56.333 40 -69c9.33301 -4 19.333 -6 30 -6z" />
    <glyph glyph-name="guillemotright" unicode="&#xbb;" horiz-adv-x="577" 
d="M39 27l162 219l-162 219h122l163 -219l-163 -219h-122zM270 27l162 219l-162 219h122l163 -219l-163 -219h-122z" />
    <glyph glyph-name="onequarter" unicode="&#xbc;" horiz-adv-x="988" 
d="M315 -13h-128l473 737h128zM760 0v86h-221l-1 2l230 346h107v-262h58v-86h-58v-86h-115zM691 172h69.001v51c0 18 0.666992 38.333 2 61l-2 1c-12.667 -23.333 -25.334 -44.333 -38.001 -63l-32 -48zM147.001 294v299l-91 -31v103l206 70v-441h-115z" />
    <glyph glyph-name="onehalf" unicode="&#xbd;" horiz-adv-x="1006" 
d="M608 0l-1.00195 2l139 175c40 53.333 60.667 91.333 62 114c-4 28 -22.333 43 -55 45c-35.333 -0.666992 -72.666 -13.667 -111.999 -39v106c42 25.333 84.333 38 127 38c71.333 0 119.333 -24.333 144 -73c10 -20 15 -41.667 15 -65c0 -42 -21 -89.667 -63 -143
c-1.33301 -2 -2.66602 -3.66699 -3.99902 -5l-41 -50l1 -2h120v-103h-332zM314.998 -13h-128l473 737h128zM146.998 294v299l-91 -31v103l206 70v-441h-115z" />
    <glyph glyph-name="threequarters" unicode="&#xbe;" horiz-adv-x="1018" 
d="M69 324l-0.00292969 107.998c44 -28.667 84.667 -43 122 -43c40.667 0.666992 61.334 14.334 62.001 41.001c-1.33301 24.667 -24.666 37.334 -69.999 38.001h-46v84h43c42.667 0.666992 64.334 14 65.001 40c0 21.333 -14 34.333 -42 39c-6 1.33301 -12.333 2 -19 2
c-30 0 -63 -8.66699 -99 -26v101c34 18 71.333 27 112 27c62 0 108.667 -18.333 140 -55c17.333 -20 26 -42.333 26 -67c0 -39.333 -18 -68.333 -54 -87c-3.33301 -1.33301 -6.33301 -2.66602 -9 -3.99902v-2c46 -21.333 70 -55 72 -101c0 -48.667 -25 -85.334 -75 -110.001
c-30 -14.667 -63 -22 -99 -22c-47.333 0 -90.333 12.333 -129 37zM344.997 -13.002h-128l473 737h128zM789.997 -0.00195312v86h-221l-1 2l230 346h107v-262h58v-86h-58v-86h-115zM720.997 171.998h69.001v51c0 18 0.666992 38.333 2 61l-2 1
c-12.667 -23.333 -25.334 -44.333 -38.001 -63l-32 -48z" />
    <glyph glyph-name="questiondown" unicode="&#xbf;" horiz-adv-x="514" 
d="M387 269l24 -177.999c-134.667 -0.666992 -202.334 -34.667 -203.001 -102c0 -36.667 16.333 -62.667 49 -78c14.667 -6.66699 31 -10 49 -10c43.333 0.666992 89.333 16.667 138 48l19 -142c-44.667 -30.667 -97.667 -47.334 -159 -50.001h-11
c-78.667 0 -142 26 -190 78c-36.667 40.667 -55 88 -55 142c0 68.667 28.333 125 85 169c34.667 26.667 72.334 42.667 113.001 48v75h141zM391 416.001c0 -32.667 -14.333 -57.667 -43 -75c-14 -8 -29 -12 -45 -12c-32.667 0 -57.667 14 -75 42c-8.66699 14 -13 29 -13 45
c0 32.667 14.333 57.667 43 75c14 8 29 12 45 12c32.667 0 57.667 -14 75 -42c8.66699 -14 13 -29 13 -45z" />
    <glyph glyph-name="Agrave" unicode="&#xc0;" horiz-adv-x="748" 
d="M3 0l294 724h154l294 -724h-170l-58 152h-292l-59 -152h-163zM303 354l-29 -77h195l-30 81l-66 184h-2zM352 795l-116 164h136l84 -164h-104z" />
    <glyph glyph-name="Aacute" unicode="&#xc1;" horiz-adv-x="748" 
d="M3 0l294 724h154l294 -724h-170l-58 152h-292l-59 -152h-163zM303 354l-29 -77h195l-30 81l-66 184h-2zM512 959l-116 -164h-104l84 164h136z" />
    <glyph glyph-name="Acircumflex" unicode="&#xc2;" horiz-adv-x="748" 
d="M3 0l294 724h154l294 -724h-170l-58 152h-292l-59 -152h-163zM303 354l-29 -77h195l-30 81l-66 184h-2zM197 795l118 164h118l118 -164h-102l-75 91l-75 -91h-102z" />
    <glyph glyph-name="Atilde" unicode="&#xc3;" horiz-adv-x="748" 
d="M3 0l294 724h154l294 -724h-170l-58 152h-292l-59 -152h-163zM303 354l-29 -77h195l-30 81l-66 184h-2zM366 828c-32 15.333 -55 23 -69 23c-30 -0.666992 -59 -17.334 -87 -50.001l-2 1v113c25.333 24 55 36.333 89 37c23.333 -0.666992 51.666 -8.66699 84.999 -24
c32 -15.333 55 -23 69 -23c30 0.666992 59 17.334 87 50.001l2 -1v-113c-25.333 -24 -55 -36.333 -89 -37c-23.333 0.666992 -51.666 8.66699 -84.999 24z" />
    <glyph glyph-name="Adieresis" unicode="&#xc4;" horiz-adv-x="748" 
d="M3 0l294 724h154l294 -724h-170l-58 152h-292l-59 -152h-163zM303 354l-29 -77h195l-30 81l-66 184h-2zM262 803c-29.333 0 -51.666 13 -66.999 39c-6.66699 12 -10 24.667 -10 38c0 29.333 13 51.666 39 66.999c12 6.66699 24.667 10 38 10
c29.333 0 51.666 -13 66.999 -39c6.66699 -12 10 -24.667 10 -38c0 -29.333 -13 -51.666 -39 -66.999c-12 -6.66699 -24.667 -10 -38 -10zM486 803c-29.333 0 -51.666 13 -66.999 39c-6.66699 12 -10 24.667 -10 38c0 29.333 13 51.666 39 66.999
c12 6.66699 24.667 10 38 10c29.333 0 51.666 -13 66.999 -39c6.66699 -12 10 -24.667 10 -38c0 -29.333 -13 -51.666 -39 -66.999c-12 -6.66699 -24.667 -10 -38 -10z" />
    <glyph glyph-name="Aring" unicode="&#xc5;" horiz-adv-x="748" 
d="M3 0l294 724h154l294 -724h-170l-58 152h-292l-59 -152h-163zM303 354l-29 -77h195l-30 81l-66 184h-2zM374 773c-48.667 0 -85.334 18.667 -110.001 56c-13.333 20.667 -20 43.334 -20 68.001c0 44.667 18.667 79 56 103c22 14 46.667 21 74 21
c48.667 0 85.334 -18.667 110.001 -56c13.333 -20.667 20 -43.334 20 -68.001c0 -44.667 -18.667 -79 -56 -103c-22 -14 -46.667 -21 -74 -21zM374 837c28 0 46.333 12.667 55 38c2 7.33301 3 14.666 3 21.999c0 28 -11.667 46.667 -35 56c-7.33301 2.66699 -15 4 -23 4
c-28 0 -46.333 -12.667 -55 -38c-2 -7.33301 -3 -14.666 -3 -21.999c0 -28 11.667 -46.667 35 -56c7.33301 -2.66699 15 -4 23 -4z" />
    <glyph glyph-name="AE" unicode="&#xc6;" horiz-adv-x="958" 
d="M-8 0l398 724h520v-139h-278v-142h238v-132h-238v-172h289v-139h-448v152h-235l-82 -152h-164zM369 395l-64 -118h168v116c0 52.667 0.666992 118.667 2 198h-2z" />
    <glyph glyph-name="Ccedilla" unicode="&#xc7;" horiz-adv-x="681" 
d="M347 -87l25.002 79.002c-110 13.333 -196.333 59.666 -259 138.999c-52 65.333 -78 142 -78 230c0 105.333 36 193.333 108 264c74.667 73.333 170 110 286 110c73.333 0 140.333 -15 201 -45v-161c-62 42 -128.667 63 -200 63c-80 0 -142.333 -28 -187 -84
c-32.667 -41.333 -49 -89.666 -49 -144.999c0 -75.333 27.333 -135 82 -179c43.333 -34.667 96.666 -52 159.999 -52c71.333 0.666992 139.666 23 204.999 67v-162c-58.667 -30.667 -128.667 -46.667 -210 -48l-8 -26c52 -10.667 81 -36.334 87 -77.001
c0.666992 -4.66699 1 -9.33398 1 -14.001c0 -40 -19.333 -67.667 -58 -83c-16.667 -6.66699 -35 -10 -55 -10c-30 0 -59 6.33301 -87 19l21 66c24.667 -12.667 46.334 -19 65.001 -19c24 2 37 10.667 39 26c-0.666992 24 -30.334 38 -89.001 42z" />
    <glyph glyph-name="Egrave" unicode="&#xc8;" 
d="M66 0v724h447v-139h-288v-142h248v-132h-248v-172h299v-139h-458zM272 795l-116 164h136l84 -164h-104z" />
    <glyph glyph-name="Eacute" unicode="&#xc9;" 
d="M66 0v724h447v-139h-288v-142h248v-132h-248v-172h299v-139h-458zM432 959l-116 -164h-104l84 164h136z" />
    <glyph glyph-name="Ecircumflex" unicode="&#xca;" 
d="M66 0v724h447v-139h-288v-142h248v-132h-248v-172h299v-139h-458zM117 795l118 164h118l118 -164h-102l-75 91l-75 -91h-102z" />
    <glyph glyph-name="Edieresis" unicode="&#xcb;" 
d="M66 0v724h447v-139h-288v-142h248v-132h-248v-172h299v-139h-458zM182 803c-29.333 0 -51.666 13 -66.999 39c-6.66699 12 -10 24.667 -10 38c0 29.333 13 51.666 39 66.999c12 6.66699 24.667 10 38 10c29.333 0 51.666 -13 66.999 -39c6.66699 -12 10 -24.667 10 -38
c0 -29.333 -13 -51.666 -39 -66.999c-12 -6.66699 -24.667 -10 -38 -10zM406 803c-29.333 0 -51.666 13 -66.999 39c-6.66699 12 -10 24.667 -10 38c0 29.333 13 51.666 39 66.999c12 6.66699 24.667 10 38 10c29.333 0 51.666 -13 66.999 -39
c6.66699 -12 10 -24.667 10 -38c0 -29.333 -13 -51.666 -39 -66.999c-12 -6.66699 -24.667 -10 -38 -10z" />
    <glyph glyph-name="Igrave" unicode="&#xcc;" horiz-adv-x="291" 
d="M66 0v724h159v-724h-159zM123 795l-116 164h136l84 -164h-104z" />
    <glyph glyph-name="Iacute" unicode="&#xcd;" horiz-adv-x="291" 
d="M66 0v724h159v-724h-159zM283 959l-116 -164h-104l84 164h136z" />
    <glyph glyph-name="Icircumflex" unicode="&#xce;" horiz-adv-x="291" 
d="M66 0v724h159v-724h-159zM-32 795l118 164h118l118 -164h-102l-75 91l-75 -91h-102z" />
    <glyph glyph-name="Idieresis" unicode="&#xcf;" horiz-adv-x="291" 
d="M66 0v724h159v-724h-159zM33 803c-29.333 0 -51.666 13 -66.999 39c-6.66699 12 -10 24.667 -10 38c0 29.333 13 51.666 39 66.999c12 6.66699 24.667 10 38 10c29.333 0 51.666 -13 66.999 -39c6.66699 -12 10 -24.667 10 -38c0 -29.333 -13 -51.666 -39 -66.999
c-12 -6.66699 -24.667 -10 -38 -10zM257 803c-29.333 0 -51.666 13 -66.999 39c-6.66699 12 -10 24.667 -10 38c0 29.333 13 51.666 39 66.999c12 6.66699 24.667 10 38 10c29.333 0 51.666 -13 66.999 -39c6.66699 -12 10 -24.667 10 -38
c0 -29.333 -13 -51.666 -39 -66.999c-12 -6.66699 -24.667 -10 -38 -10z" />
    <glyph glyph-name="Eth" unicode="&#xd0;" horiz-adv-x="758" 
d="M2 313v111h79v300h203c132.667 -0.666992 234 -25 304 -73c81.333 -56.667 127 -139.334 137 -248.001c1.33301 -13.333 2 -26.666 2 -39.999c0 -110 -36 -197.667 -108 -263c-4 -4 -8 -7.66699 -12 -11c-74 -59.333 -184 -89 -330 -89h-196v313h-79zM240 139h44
c98.667 0.666992 170 19.667 214 57c46.667 40.667 70 96.334 70 167.001c0 77.333 -26.667 135.666 -80 174.999c-2 1.33301 -3.33301 2.33301 -4 3c-42 29.333 -109 44 -201 44h-43v-161h131v-111h-131v-174z" />
    <glyph glyph-name="Ntilde" unicode="&#xd1;" horiz-adv-x="788" 
d="M572 0l-217 292l-136 187l-2 -1c1.33301 -92 2 -161.667 2 -209v-269h-153v724h150l217 -292l136 -187l2 1c-1.33301 92 -2 161.667 -2 209v269h153v-724h-150zM386 828c-32 15.333 -55 23 -69 23c-30 -0.666992 -59 -17.334 -87 -50.001l-2 1v113
c25.333 24 55 36.333 89 37c23.333 -0.666992 51.666 -8.66699 84.999 -24c32 -15.333 55 -23 69 -23c30 0.666992 59 17.334 87 50.001l2 -1v-113c-25.333 -24 -55 -36.333 -89 -37c-23.333 0.666992 -51.666 8.66699 -84.999 24z" />
    <glyph glyph-name="Ograve" unicode="&#xd2;" horiz-adv-x="824" 
d="M412 133c68.667 0 124.667 26.333 168 79c34 43.333 51 93.333 51 150c0 72 -25.333 130.333 -76 175c-40.667 36 -88.334 54 -143.001 54c-68.667 0 -124.667 -26.333 -168 -79c-34 -43.333 -51 -93.333 -51 -150c0 -72 25.333 -130.333 76 -175
c40.667 -36 88.334 -54 143.001 -54zM412 -11c-106 0 -195 35 -267 105c-72 75.333 -109 164.666 -111 267.999c0 104 35 191.333 105 262c76.667 71.333 167.667 108.333 273 111c106 0 195 -35 267 -105c72 -75.333 109 -164.666 111 -267.999
c0 -104 -35 -191.333 -105 -262c-76.667 -71.333 -167.667 -108.333 -273 -111zM390 795l-116 164h136l84 -164h-104z" />
    <glyph glyph-name="Oacute" unicode="&#xd3;" horiz-adv-x="824" 
d="M412 133c68.667 0 124.667 26.333 168 79c34 43.333 51 93.333 51 150c0 72 -25.333 130.333 -76 175c-40.667 36 -88.334 54 -143.001 54c-68.667 0 -124.667 -26.333 -168 -79c-34 -43.333 -51 -93.333 -51 -150c0 -72 25.333 -130.333 76 -175
c40.667 -36 88.334 -54 143.001 -54zM412 -11c-106 0 -195 35 -267 105c-72 75.333 -109 164.666 -111 267.999c0 104 35 191.333 105 262c76.667 71.333 167.667 108.333 273 111c106 0 195 -35 267 -105c72 -75.333 109 -164.666 111 -267.999
c0 -104 -35 -191.333 -105 -262c-76.667 -71.333 -167.667 -108.333 -273 -111zM550 959l-116 -164h-104l84 164h136z" />
    <glyph glyph-name="Ocircumflex" unicode="&#xd4;" horiz-adv-x="824" 
d="M412 133c68.667 0 124.667 26.333 168 79c34 43.333 51 93.333 51 150c0 72 -25.333 130.333 -76 175c-40.667 36 -88.334 54 -143.001 54c-68.667 0 -124.667 -26.333 -168 -79c-34 -43.333 -51 -93.333 -51 -150c0 -72 25.333 -130.333 76 -175
c40.667 -36 88.334 -54 143.001 -54zM412 -11c-106 0 -195 35 -267 105c-72 75.333 -109 164.666 -111 267.999c0 104 35 191.333 105 262c76.667 71.333 167.667 108.333 273 111c106 0 195 -35 267 -105c72 -75.333 109 -164.666 111 -267.999
c0 -104 -35 -191.333 -105 -262c-76.667 -71.333 -167.667 -108.333 -273 -111zM235 795l118 164h118l118 -164h-102l-75 91l-75 -91h-102z" />
    <glyph glyph-name="Otilde" unicode="&#xd5;" horiz-adv-x="824" 
d="M412 133c68.667 0 124.667 26.333 168 79c34 43.333 51 93.333 51 150c0 72 -25.333 130.333 -76 175c-40.667 36 -88.334 54 -143.001 54c-68.667 0 -124.667 -26.333 -168 -79c-34 -43.333 -51 -93.333 -51 -150c0 -72 25.333 -130.333 76 -175
c40.667 -36 88.334 -54 143.001 -54zM412 -11c-106 0 -195 35 -267 105c-72 75.333 -109 164.666 -111 267.999c0 104 35 191.333 105 262c76.667 71.333 167.667 108.333 273 111c106 0 195 -35 267 -105c72 -75.333 109 -164.666 111 -267.999
c0 -104 -35 -191.333 -105 -262c-76.667 -71.333 -167.667 -108.333 -273 -111zM404 828c-32 15.333 -55 23 -69 23c-30 -0.666992 -59 -17.334 -87 -50.001l-2 1v113c25.333 24 55 36.333 89 37c23.333 -0.666992 51.666 -8.66699 84.999 -24c32 -15.333 55 -23 69 -23
c30 0.666992 59 17.334 87 50.001l2 -1v-113c-25.333 -24 -55 -36.333 -89 -37c-23.333 0.666992 -51.666 8.66699 -84.999 24z" />
    <glyph glyph-name="Odieresis" unicode="&#xd6;" horiz-adv-x="824" 
d="M412 133c68.667 0 124.667 26.333 168 79c34 43.333 51 93.333 51 150c0 72 -25.333 130.333 -76 175c-40.667 36 -88.334 54 -143.001 54c-68.667 0 -124.667 -26.333 -168 -79c-34 -43.333 -51 -93.333 -51 -150c0 -72 25.333 -130.333 76 -175
c40.667 -36 88.334 -54 143.001 -54zM412 -11c-106 0 -195 35 -267 105c-72 75.333 -109 164.666 -111 267.999c0 104 35 191.333 105 262c76.667 71.333 167.667 108.333 273 111c106 0 195 -35 267 -105c72 -75.333 109 -164.666 111 -267.999
c0 -104 -35 -191.333 -105 -262c-76.667 -71.333 -167.667 -108.333 -273 -111zM300 803c-29.333 0 -51.666 13 -66.999 39c-6.66699 12 -10 24.667 -10 38c0 29.333 13 51.666 39 66.999c12 6.66699 24.667 10 38 10c29.333 0 51.666 -13 66.999 -39
c6.66699 -12 10 -24.667 10 -38c0 -29.333 -13 -51.666 -39 -66.999c-12 -6.66699 -24.667 -10 -38 -10zM524 803c-29.333 0 -51.666 13 -66.999 39c-6.66699 12 -10 24.667 -10 38c0 29.333 13 51.666 39 66.999c12 6.66699 24.667 10 38 10
c29.333 0 51.666 -13 66.999 -39c6.66699 -12 10 -24.667 10 -38c0 -29.333 -13 -51.666 -39 -66.999c-12 -6.66699 -24.667 -10 -38 -10z" />
    <glyph glyph-name="multiply" unicode="&#xd7;" horiz-adv-x="600" 
d="M161 143l-81 80l140 140l-140 139l81 80l139 -139l139 139l81 -80l-140 -140l140 -139l-81 -80l-139 139z" />
    <glyph glyph-name="Oslash" unicode="&#xd8;" horiz-adv-x="824" 
d="M193 362c0.666992 -56 16.333 -104.333 47 -145l286 342c-35.333 21.333 -73.333 32 -114 32c-68.667 0 -124.667 -26.333 -168 -79c-34 -43.333 -51 -93.333 -51 -150zM33.999 362c0 104 35 191.333 105 262c76.667 71.333 167.667 108.333 273 111
c78 -0.666992 148.333 -21 211 -61l59 71l60 -50l-58 -70c68.667 -73.333 104 -161 106 -263c0 -104 -35 -191.333 -105 -262c-76.667 -71.333 -167.667 -108.333 -273 -111c-78 0.666992 -148.333 21 -211 61l-59 -71l-60 50l58 70c-68.667 73.333 -104 161 -106 263z
M630.999 362c-0.666992 56 -16.333 104.333 -47 145l-286 -342c35.333 -21.333 73.333 -32 114 -32c68.667 0 124.667 26.333 168 79c34 43.333 51 93.333 51 150z" />
    <glyph glyph-name="Ugrave" unicode="&#xd9;" horiz-adv-x="749" 
d="M113 107c-36 54 -54.001 134 -54.001 240v377h159v-371c0 -95.333 16.667 -158 50 -188c25.333 -22 62 -33 110 -33c70 0 116.333 26.667 139 80c13.333 33.333 20 80 20 140v372h153v-373c0 -111.333 -18.667 -193.333 -56 -246c-46 -66 -117.333 -104 -214 -114
c-15.333 -1.33301 -30.666 -2 -45.999 -2c-104.667 0 -185 31 -241 93c-7.33301 8 -14 16.333 -20 25zM354.999 795l-116 164h136l84 -164h-104z" />
    <glyph glyph-name="Uacute" unicode="&#xda;" horiz-adv-x="749" 
d="M113 107c-36 54 -54.001 134 -54.001 240v377h159v-371c0 -95.333 16.667 -158 50 -188c25.333 -22 62 -33 110 -33c70 0 116.333 26.667 139 80c13.333 33.333 20 80 20 140v372h153v-373c0 -111.333 -18.667 -193.333 -56 -246c-46 -66 -117.333 -104 -214 -114
c-15.333 -1.33301 -30.666 -2 -45.999 -2c-104.667 0 -185 31 -241 93c-7.33301 8 -14 16.333 -20 25zM514.999 959l-116 -164h-104l84 164h136z" />
    <glyph glyph-name="Ucircumflex" unicode="&#xdb;" horiz-adv-x="749" 
d="M113 107c-36 54 -54.001 134 -54.001 240v377h159v-371c0 -95.333 16.667 -158 50 -188c25.333 -22 62 -33 110 -33c70 0 116.333 26.667 139 80c13.333 33.333 20 80 20 140v372h153v-373c0 -111.333 -18.667 -193.333 -56 -246c-46 -66 -117.333 -104 -214 -114
c-15.333 -1.33301 -30.666 -2 -45.999 -2c-104.667 0 -185 31 -241 93c-7.33301 8 -14 16.333 -20 25zM199.999 795l118 164h118l118 -164h-102l-75 91l-75 -91h-102z" />
    <glyph glyph-name="Udieresis" unicode="&#xdc;" horiz-adv-x="749" 
d="M113 107c-36 54 -54.001 134 -54.001 240v377h159v-371c0 -95.333 16.667 -158 50 -188c25.333 -22 62 -33 110 -33c70 0 116.333 26.667 139 80c13.333 33.333 20 80 20 140v372h153v-373c0 -111.333 -18.667 -193.333 -56 -246c-46 -66 -117.333 -104 -214 -114
c-15.333 -1.33301 -30.666 -2 -45.999 -2c-104.667 0 -185 31 -241 93c-7.33301 8 -14 16.333 -20 25zM264.999 803c-29.333 0 -51.666 13 -66.999 39c-6.66699 12 -10 24.667 -10 38c0 29.333 13 51.666 39 66.999c12 6.66699 24.667 10 38 10
c29.333 0 51.666 -13 66.999 -39c6.66699 -12 10 -24.667 10 -38c0 -29.333 -13 -51.666 -39 -66.999c-12 -6.66699 -24.667 -10 -38 -10zM488.999 803c-29.333 0 -51.666 13 -66.999 39c-6.66699 12 -10 24.667 -10 38c0 29.333 13 51.666 39 66.999
c12 6.66699 24.667 10 38 10c29.333 0 51.666 -13 66.999 -39c6.66699 -12 10 -24.667 10 -38c0 -29.333 -13 -51.666 -39 -66.999c-12 -6.66699 -24.667 -10 -38 -10z" />
    <glyph glyph-name="Yacute" unicode="&#xdd;" horiz-adv-x="689" 
d="M266 0v327l-279 397h185l88 -131l87 -133h2l87 134l87 130h179l-277 -396v-328h-159zM485 959l-116 -164h-104l84 164h136z" />
    <glyph glyph-name="Thorn" unicode="&#xde;" horiz-adv-x="639" 
d="M509 177c-51.333 -30 -129.333 -45 -234 -45h-50v-132h-159v724h159v-127h56c95.333 0 167 -12.667 215 -38c71.333 -36.667 110 -94 116 -172c0.666992 -7.33301 1 -14.333 1 -21c0 -80.667 -31.333 -141.667 -94 -183c-4 -2 -7.33301 -4 -10 -6zM225 261
l57.999 0.000976562c62.667 0 104.667 6 126 18c29.333 17.333 44.333 43.666 45 78.999c-0.666992 40.667 -17.667 69 -51 85c-23.333 10 -64.666 15 -123.999 15h-54v-197z" />
    <glyph glyph-name="germandbls" unicode="&#xdf;" horiz-adv-x="655" 
d="M63 0l0.000976562 558.001c0.666992 76 23 131.333 67 166c44 34 105 51 183 51s139.667 -16 185 -48c45.333 -34 68 -82.333 68 -145c0 -42.667 -9.33301 -84 -28 -124c-30 -5.33301 -54.667 -11.666 -74 -18.999c-35.333 -14 -53.333 -32 -54 -54
c0 -17.333 12.333 -32.333 37 -45c6 -3.33301 16 -8 30 -14l23 -11c53.333 -25.333 89 -52.333 107 -81c14.667 -24 22 -51 22 -81c0 -66 -31 -113.333 -93 -142c-32 -14.667 -67.667 -22 -107 -22c-57.333 0 -110 12.667 -158 38v130
c46.667 -29.333 92.334 -46 137.001 -50c5.33301 -0.666992 10 -1 14 -1c37.333 1.33301 56.333 15.333 57 42c0 17.333 -11.333 31.666 -34 42.999c-5.33301 3.33301 -15 8 -29 14c-16 6.66699 -28.333 12 -37 16c-68 33.333 -106.333 75.666 -115 126.999
c-1.33301 9.33301 -2 18.333 -2 27c0.666992 47.333 18.667 86.333 54 117c25.333 20.667 56 36.667 92 48c2.66699 10.667 4 20.667 4 30c-0.666992 24 -9.33398 42.667 -26.001 56c-16 12 -40 18 -72 18c-34.667 -0.666992 -59.334 -7.66699 -74.001 -21
c-16.667 -15.333 -25 -40.333 -25 -75v-548h-152z" />
    <glyph glyph-name="agrave" unicode="&#xe0;" horiz-adv-x="537" 
d="M203 -11c-45.333 0.666992 -83.333 11.3359 -114 32.0029c-38 27.333 -57.333 65.666 -58 114.999c0.666992 52 20.667 91.667 60 119c34.667 23.333 80.667 35 138 35c30 0 58.333 -3 85 -9v19c-0.666992 23.333 -7 40.666 -19 51.999c-16 14 -41.333 21 -76 21
c-48 0 -96 -13 -144 -39v131c51.333 25.333 108.666 38 171.999 38c71.333 -0.666992 126 -16.334 164 -47.001c36.667 -30.667 55 -76 55 -136v-167c1.33301 -25.333 11.333 -38.333 30 -39c8.66699 0 17 2 25 6v-114c-19.333 -10 -43.666 -15 -72.999 -15
c-45.333 0.666992 -80.666 13.667 -105.999 39h-2c-38.667 -27.333 -84.334 -41 -137.001 -41zM245 101.002c24.667 0 47.667 6.66797 69 20.001v72c-15.333 4.66699 -33.333 7 -54 7c-48.667 -4 -74.667 -20.667 -78 -50c0 -24.667 14 -40.334 42 -47.001
c7.33301 -1.33301 14.333 -2 21 -2zM246 563.003l-116 164h136l84 -164h-104z" />
    <glyph glyph-name="aacute" unicode="&#xe1;" horiz-adv-x="537" 
d="M203 -11c-45.333 0.666992 -83.333 11.3359 -114 32.0029c-38 27.333 -57.333 65.666 -58 114.999c0.666992 52 20.667 91.667 60 119c34.667 23.333 80.667 35 138 35c30 0 58.333 -3 85 -9v19c-0.666992 23.333 -7 40.666 -19 51.999c-16 14 -41.333 21 -76 21
c-48 0 -96 -13 -144 -39v131c51.333 25.333 108.666 38 171.999 38c71.333 -0.666992 126 -16.334 164 -47.001c36.667 -30.667 55 -76 55 -136v-167c1.33301 -25.333 11.333 -38.333 30 -39c8.66699 0 17 2 25 6v-114c-19.333 -10 -43.666 -15 -72.999 -15
c-45.333 0.666992 -80.666 13.667 -105.999 39h-2c-38.667 -27.333 -84.334 -41 -137.001 -41zM245 101.002c24.667 0 47.667 6.66797 69 20.001v72c-15.333 4.66699 -33.333 7 -54 7c-48.667 -4 -74.667 -20.667 -78 -50c0 -24.667 14 -40.334 42 -47.001
c7.33301 -1.33301 14.333 -2 21 -2zM406 727.003l-116 -164h-104l84 164h136z" />
    <glyph glyph-name="acircumflex" unicode="&#xe2;" horiz-adv-x="537" 
d="M203 -11c-45.333 0.666992 -83.333 11.3359 -114 32.0029c-38 27.333 -57.333 65.666 -58 114.999c0.666992 52 20.667 91.667 60 119c34.667 23.333 80.667 35 138 35c30 0 58.333 -3 85 -9v19c-0.666992 23.333 -7 40.666 -19 51.999c-16 14 -41.333 21 -76 21
c-48 0 -96 -13 -144 -39v131c51.333 25.333 108.666 38 171.999 38c71.333 -0.666992 126 -16.334 164 -47.001c36.667 -30.667 55 -76 55 -136v-167c1.33301 -25.333 11.333 -38.333 30 -39c8.66699 0 17 2 25 6v-114c-19.333 -10 -43.666 -15 -72.999 -15
c-45.333 0.666992 -80.666 13.667 -105.999 39h-2c-38.667 -27.333 -84.334 -41 -137.001 -41zM245 101.002c24.667 0 47.667 6.66797 69 20.001v72c-15.333 4.66699 -33.333 7 -54 7c-48.667 -4 -74.667 -20.667 -78 -50c0 -24.667 14 -40.334 42 -47.001
c7.33301 -1.33301 14.333 -2 21 -2zM91 563.003l118 164h118l118 -164h-102l-75 91l-75 -91h-102z" />
    <glyph glyph-name="atilde" unicode="&#xe3;" horiz-adv-x="537" 
d="M203 -11c-45.333 0.666992 -83.333 11.3359 -114 32.0029c-38 27.333 -57.333 65.666 -58 114.999c0.666992 52 20.667 91.667 60 119c34.667 23.333 80.667 35 138 35c30 0 58.333 -3 85 -9v19c-0.666992 23.333 -7 40.666 -19 51.999c-16 14 -41.333 21 -76 21
c-48 0 -96 -13 -144 -39v131c51.333 25.333 108.666 38 171.999 38c71.333 -0.666992 126 -16.334 164 -47.001c36.667 -30.667 55 -76 55 -136v-167c1.33301 -25.333 11.333 -38.333 30 -39c8.66699 0 17 2 25 6v-114c-19.333 -10 -43.666 -15 -72.999 -15
c-45.333 0.666992 -80.666 13.667 -105.999 39h-2c-38.667 -27.333 -84.334 -41 -137.001 -41zM245 101.002c24.667 0 47.667 6.66797 69 20.001v72c-15.333 4.66699 -33.333 7 -54 7c-48.667 -4 -74.667 -20.667 -78 -50c0 -24.667 14 -40.334 42 -47.001
c7.33301 -1.33301 14.333 -2 21 -2zM260 596.003c-32 15.333 -55 23 -69 23c-30 -0.666992 -59 -17.334 -87 -50.001l-2 1v113c25.333 24 55 36.333 89 37c23.333 -0.666992 51.666 -8.66699 84.999 -24c32 -15.333 55 -23 69 -23c30 0.666992 59 17.334 87 50.001l2 -1
v-113c-25.333 -24 -55 -36.333 -89 -37c-23.333 0.666992 -51.666 8.66699 -84.999 24z" />
    <glyph glyph-name="adieresis" unicode="&#xe4;" horiz-adv-x="537" 
d="M203 -11c-45.333 0.666992 -83.333 11.3359 -114 32.0029c-38 27.333 -57.333 65.666 -58 114.999c0.666992 52 20.667 91.667 60 119c34.667 23.333 80.667 35 138 35c30 0 58.333 -3 85 -9v19c-0.666992 23.333 -7 40.666 -19 51.999c-16 14 -41.333 21 -76 21
c-48 0 -96 -13 -144 -39v131c51.333 25.333 108.666 38 171.999 38c71.333 -0.666992 126 -16.334 164 -47.001c36.667 -30.667 55 -76 55 -136v-167c1.33301 -25.333 11.333 -38.333 30 -39c8.66699 0 17 2 25 6v-114c-19.333 -10 -43.666 -15 -72.999 -15
c-45.333 0.666992 -80.666 13.667 -105.999 39h-2c-38.667 -27.333 -84.334 -41 -137.001 -41zM245 101.002c24.667 0 47.667 6.66797 69 20.001v72c-15.333 4.66699 -33.333 7 -54 7c-48.667 -4 -74.667 -20.667 -78 -50c0 -24.667 14 -40.334 42 -47.001
c7.33301 -1.33301 14.333 -2 21 -2zM156 571.003c-29.333 0 -51.666 13 -66.999 39c-6.66699 12 -10 24.667 -10 38c0 29.333 13 51.666 39 66.999c12 6.66699 24.667 10 38 10c29.333 0 51.666 -13 66.999 -39c6.66699 -12 10 -24.667 10 -38
c0 -29.333 -13 -51.666 -39 -66.999c-12 -6.66699 -24.667 -10 -38 -10zM380 571.003c-29.333 0 -51.666 13 -66.999 39c-6.66699 12 -10 24.667 -10 38c0 29.333 13 51.666 39 66.999c12 6.66699 24.667 10 38 10c29.333 0 51.666 -13 66.999 -39
c6.66699 -12 10 -24.667 10 -38c0 -29.333 -13 -51.666 -39 -66.999c-12 -6.66699 -24.667 -10 -38 -10z" />
    <glyph glyph-name="aring" unicode="&#xe5;" horiz-adv-x="537" 
d="M203 -11c-45.333 0.666992 -83.333 11.3359 -114 32.0029c-38 27.333 -57.333 65.666 -58 114.999c0.666992 52 20.667 91.667 60 119c34.667 23.333 80.667 35 138 35c30 0 58.333 -3 85 -9v19c-0.666992 23.333 -7 40.666 -19 51.999c-16 14 -41.333 21 -76 21
c-48 0 -96 -13 -144 -39v131c51.333 25.333 108.666 38 171.999 38c71.333 -0.666992 126 -16.334 164 -47.001c36.667 -30.667 55 -76 55 -136v-167c1.33301 -25.333 11.333 -38.333 30 -39c8.66699 0 17 2 25 6v-114c-19.333 -10 -43.666 -15 -72.999 -15
c-45.333 0.666992 -80.666 13.667 -105.999 39h-2c-38.667 -27.333 -84.334 -41 -137.001 -41zM245 101.002c24.667 0 47.667 6.66797 69 20.001v72c-15.333 4.66699 -33.333 7 -54 7c-48.667 -4 -74.667 -20.667 -78 -50c0 -24.667 14 -40.334 42 -47.001
c7.33301 -1.33301 14.333 -2 21 -2zM268 541.003c-48.667 0 -85.334 18.667 -110.001 56c-13.333 20.667 -20 43.334 -20 68.001c0 44.667 18.667 79 56 103c22 14 46.667 21 74 21c48.667 0 85.334 -18.667 110.001 -56c13.333 -20.667 20 -43.334 20 -68.001
c0 -44.667 -18.667 -79 -56 -103c-22 -14 -46.667 -21 -74 -21zM268 605.003c28 0 46.333 12.667 55 38c2 7.33301 3 14.666 3 21.999c0 28 -11.667 46.667 -35 56c-7.33301 2.66699 -15 4 -23 4c-28 0 -46.333 -12.667 -55 -38c-2 -7.33301 -3 -14.666 -3 -21.999
c0 -28 11.667 -46.667 35 -56c7.33301 -2.66699 15 -4 23 -4z" />
    <glyph glyph-name="ae" unicode="&#xe6;" horiz-adv-x="829" 
d="M243 503c75.333 -0.666992 130.668 -18.333 166.001 -53h2c42 35.333 92 53 150 53c74 0 132.667 -25.667 176 -77c37.333 -44 56 -100 56 -168c0 -21.333 -1 -38.666 -3 -51.999h-330c16 -62 59 -95 129 -99h13c56 0.666992 110.667 18.667 164 54v-127
c-49.333 -30 -110.666 -45 -183.999 -45c-87.333 0.666992 -155 24.334 -203 71.001c-50 -47.333 -108 -71 -174 -71c-44.667 0.666992 -83 11.667 -115 33c-38.667 28 -58.334 66.333 -59.001 115c0.666992 51.333 20.667 90.666 60 117.999c34.667 23.333 80 35 136 35
c27.333 0 54.666 -2.66699 81.999 -8v18c-0.666992 23.333 -7 40.666 -19 51.999c-16 14 -40.333 21 -73 21c-48 0 -95.333 -13 -142 -39v131c50 25.333 106 38 168 38zM558.002 388.001c-42.667 0 -73 -20.667 -91 -62c-3.33301 -8 -6 -16 -8 -24h194
c-6 41.333 -26.667 68 -62 80c-10.667 4 -21.667 6 -33 6zM330.002 136.001c-8 20 -13.334 38.999 -16.001 56.999c-20 4.66699 -38.667 7 -56 7c-49.333 -4.66699 -76 -21.667 -80 -51c0 -24.667 14.667 -40 44 -46c6.66699 -1.33301 13.334 -2 20.001 -2
c32 0.666992 61.333 12.334 88 35.001z" />
    <glyph glyph-name="ccedilla" unicode="&#xe7;" horiz-adv-x="512" 
d="M225 -87l25.998 81.001c-80 13.333 -139.667 51.333 -179 114c-26 41.333 -39 87 -39 137c0 82 32 147.667 96 197c52 40.667 114 61 186 61c53.333 0 102 -11 146 -33v-141c-48.667 30.667 -95 46 -139 46c-53.333 0 -92.666 -20 -117.999 -60
c-12.667 -20.667 -19 -43.667 -19 -69c0 -49.333 20.667 -85.666 62 -108.999c22.667 -12.667 48.334 -19 77.001 -19c52.667 0.666992 100.667 17 144 49v-140c-44 -24 -97 -36.667 -159 -38l-8 -26c52 -10.667 81 -36.334 87 -77.001
c0.666992 -4.66699 1 -9.33398 1 -14.001c0 -40 -19.333 -67.667 -58 -83c-16.667 -6.66699 -35 -10 -55 -10c-30 0 -59 6.33301 -87 19l21 66c24.667 -12.667 46.334 -19 65.001 -19c24 2 37 10.667 39 26c-0.666992 24 -30.334 38 -89.001 42z" />
    <glyph glyph-name="egrave" unicode="&#xe8;" 
d="M522 206l-334.001 -0.000976562c14 -56.667 52.667 -89 116 -97c9.33301 -1.33301 18.333 -2 27 -2c58 0.666992 113.667 18.667 167 54v-127c-48.667 -29.333 -111 -44.333 -187 -45c-93.333 0 -166.333 29.333 -219 88c-40 46 -60 101.667 -60 167
c0 84 30.667 151 92 201c48 38.667 103.333 58 166 58c74.667 0 134.334 -25.667 179.001 -77c37.333 -44 56 -100 56 -168c0 -21.333 -1 -38.666 -3 -51.999zM287.999 386.999c-42 0 -72.333 -18.667 -91 -56c-4 -9.33301 -7.33301 -19 -10 -29h198
c-6.66699 41.333 -28 68 -64 80c-10.667 3.33301 -21.667 5 -33 5zM257.999 562.999l-116 164h136l84 -164h-104z" />
    <glyph glyph-name="eacute" unicode="&#xe9;" 
d="M522 206l-334.001 -0.000976562c14 -56.667 52.667 -89 116 -97c9.33301 -1.33301 18.333 -2 27 -2c58 0.666992 113.667 18.667 167 54v-127c-48.667 -29.333 -111 -44.333 -187 -45c-93.333 0 -166.333 29.333 -219 88c-40 46 -60 101.667 -60 167
c0 84 30.667 151 92 201c48 38.667 103.333 58 166 58c74.667 0 134.334 -25.667 179.001 -77c37.333 -44 56 -100 56 -168c0 -21.333 -1 -38.666 -3 -51.999zM287.999 386.999c-42 0 -72.333 -18.667 -91 -56c-4 -9.33301 -7.33301 -19 -10 -29h198
c-6.66699 41.333 -28 68 -64 80c-10.667 3.33301 -21.667 5 -33 5zM417.999 726.999l-116 -164h-104l84 164h136z" />
    <glyph glyph-name="ecircumflex" unicode="&#xea;" 
d="M522 206l-334.001 -0.000976562c14 -56.667 52.667 -89 116 -97c9.33301 -1.33301 18.333 -2 27 -2c58 0.666992 113.667 18.667 167 54v-127c-48.667 -29.333 -111 -44.333 -187 -45c-93.333 0 -166.333 29.333 -219 88c-40 46 -60 101.667 -60 167
c0 84 30.667 151 92 201c48 38.667 103.333 58 166 58c74.667 0 134.334 -25.667 179.001 -77c37.333 -44 56 -100 56 -168c0 -21.333 -1 -38.666 -3 -51.999zM287.999 386.999c-42 0 -72.333 -18.667 -91 -56c-4 -9.33301 -7.33301 -19 -10 -29h198
c-6.66699 41.333 -28 68 -64 80c-10.667 3.33301 -21.667 5 -33 5zM102.999 562.999l118 164h118l118 -164h-102l-75 91l-75 -91h-102z" />
    <glyph glyph-name="edieresis" unicode="&#xeb;" 
d="M522 206l-334.001 -0.000976562c14 -56.667 52.667 -89 116 -97c9.33301 -1.33301 18.333 -2 27 -2c58 0.666992 113.667 18.667 167 54v-127c-48.667 -29.333 -111 -44.333 -187 -45c-93.333 0 -166.333 29.333 -219 88c-40 46 -60 101.667 -60 167
c0 84 30.667 151 92 201c48 38.667 103.333 58 166 58c74.667 0 134.334 -25.667 179.001 -77c37.333 -44 56 -100 56 -168c0 -21.333 -1 -38.666 -3 -51.999zM287.999 386.999c-42 0 -72.333 -18.667 -91 -56c-4 -9.33301 -7.33301 -19 -10 -29h198
c-6.66699 41.333 -28 68 -64 80c-10.667 3.33301 -21.667 5 -33 5zM167.999 570.999c-29.333 0 -51.666 13 -66.999 39c-6.66699 12 -10 24.667 -10 38c0 29.333 13 51.666 39 66.999c12 6.66699 24.667 10 38 10c29.333 0 51.666 -13 66.999 -39
c6.66699 -12 10 -24.667 10 -38c0 -29.333 -13 -51.666 -39 -66.999c-12 -6.66699 -24.667 -10 -38 -10zM391.999 570.999c-29.333 0 -51.666 13 -66.999 39c-6.66699 12 -10 24.667 -10 38c0 29.333 13 51.666 39 66.999c12 6.66699 24.667 10 38 10
c29.333 0 51.666 -13 66.999 -39c6.66699 -12 10 -24.667 10 -38c0 -29.333 -13 -51.666 -39 -66.999c-12 -6.66699 -24.667 -10 -38 -10z" />
    <glyph glyph-name="igrave" unicode="&#xec;" horiz-adv-x="278" 
d="M63 0v492h152v-492h-152zM117 563l-116 164h136l84 -164h-104z" />
    <glyph glyph-name="iacute" unicode="&#xed;" horiz-adv-x="278" 
d="M63 0v492h152v-492h-152zM277 727l-116 -164h-104l84 164h136z" />
    <glyph glyph-name="icircumflex" unicode="&#xee;" horiz-adv-x="278" 
d="M63 0v492h152v-492h-152zM-38 563l118 164h118l118 -164h-102l-75 91l-75 -91h-102z" />
    <glyph glyph-name="idieresis" unicode="&#xef;" horiz-adv-x="278" 
d="M63 0v492h152v-492h-152zM27 571c-29.333 0 -51.666 13 -66.999 39c-6.66699 12 -10 24.667 -10 38c0 29.333 13 51.666 39 66.999c12 6.66699 24.667 10 38 10c29.333 0 51.666 -13 66.999 -39c6.66699 -12 10 -24.667 10 -38c0 -29.333 -13 -51.666 -39 -66.999
c-12 -6.66699 -24.667 -10 -38 -10zM251 571c-29.333 0 -51.666 13 -66.999 39c-6.66699 12 -10 24.667 -10 38c0 29.333 13 51.666 39 66.999c12 6.66699 24.667 10 38 10c29.333 0 51.666 -13 66.999 -39c6.66699 -12 10 -24.667 10 -38
c0 -29.333 -13 -51.666 -39 -66.999c-12 -6.66699 -24.667 -10 -38 -10z" />
    <glyph glyph-name="eth" unicode="&#xf0;" horiz-adv-x="583" 
d="M118 488l-19 91l91 33c-20.667 13.333 -47.334 28.666 -80.001 45.999l93 91c44.667 -23.333 87.667 -51.333 129 -84l121 45l19 -91l-65 -24c90 -97.333 138.667 -202 146 -314c0.666992 -9.33301 1 -18 1 -26c0 -98.667 -34.333 -171.667 -103 -219
c-45.333 -31.333 -99 -47 -161 -47c-91.333 0 -161.666 30.333 -210.999 91c-34.667 44 -52 95.667 -52 155c0 76.667 26.333 138.334 79 185.001c44 38.667 96.333 58 157 58c31.333 0 58.333 -7 81 -21l2 2c-16.667 30 -40 59 -70 87zM179 239c0 -48 17.333 -83 52 -105
c18 -10.667 37.667 -16 59 -16c46.667 0 79.667 20.667 99 62c8 18.667 12 38.667 12 60c0 51.333 -19 87 -57 107c-16.667 8.66699 -35 13 -55 13c-46 0 -78.333 -20 -97 -60c-8.66699 -18.667 -13 -39 -13 -61z" />
    <glyph glyph-name="ntilde" unicode="&#xf1;" horiz-adv-x="600" 
d="M63 0l0.000976562 492.002h150v-45l2 -1c47.333 38 98 57 152 57c54 -0.666992 97 -17.334 129 -50.001c28.667 -31.333 43 -80 43 -146v-307h-152v282c-0.666992 32.667 -6.33398 55.667 -17.001 69c-12.667 14 -30 21 -52 21
c-34 -0.666992 -68.333 -14.334 -103 -41.001v-331h-152zM292.001 596.002c-32 15.333 -55 23 -69 23c-30 -0.666992 -59 -17.334 -87 -50.001l-2 1v113c25.333 24 55 36.333 89 37c23.333 -0.666992 51.666 -8.66699 84.999 -24c32 -15.333 55 -23 69 -23
c30 0.666992 59 17.334 87 50.001l2 -1v-113c-25.333 -24 -55 -36.333 -89 -37c-23.333 0.666992 -51.666 8.66699 -84.999 24z" />
    <glyph glyph-name="ograve" unicode="&#xf2;" horiz-adv-x="612" 
d="M184 246c0 -44.667 17.333 -79.334 52 -104.001c21.333 -14.667 44.666 -22 69.999 -22c43.333 0 77 18 101 54c14 22 21 46 21 72c0 44.667 -17.333 79.334 -52 104.001c-21.333 14.667 -44.666 22 -69.999 22c-43.333 0 -77 -18 -101 -54c-14 -22 -21 -46 -21 -72z
M32 246c0 77.333 29 141 87 191c52 44 114.333 66 187 66c84.667 0 153.667 -28.667 207 -86c44.667 -48 67 -105 67 -171c0 -77.333 -29 -141 -87 -191c-52 -44 -114.333 -66 -187 -66c-84.667 0 -153.667 28.667 -207 86c-44.667 48 -67 105 -67 171zM284 563l-116 164
h136l84 -164h-104z" />
    <glyph glyph-name="oacute" unicode="&#xf3;" horiz-adv-x="612" 
d="M184 246c0 -44.667 17.333 -79.334 52 -104.001c21.333 -14.667 44.666 -22 69.999 -22c43.333 0 77 18 101 54c14 22 21 46 21 72c0 44.667 -17.333 79.334 -52 104.001c-21.333 14.667 -44.666 22 -69.999 22c-43.333 0 -77 -18 -101 -54c-14 -22 -21 -46 -21 -72z
M32 246c0 77.333 29 141 87 191c52 44 114.333 66 187 66c84.667 0 153.667 -28.667 207 -86c44.667 -48 67 -105 67 -171c0 -77.333 -29 -141 -87 -191c-52 -44 -114.333 -66 -187 -66c-84.667 0 -153.667 28.667 -207 86c-44.667 48 -67 105 -67 171zM444 727l-116 -164
h-104l84 164h136z" />
    <glyph glyph-name="ocircumflex" unicode="&#xf4;" horiz-adv-x="612" 
d="M184 246c0 -44.667 17.333 -79.334 52 -104.001c21.333 -14.667 44.666 -22 69.999 -22c43.333 0 77 18 101 54c14 22 21 46 21 72c0 44.667 -17.333 79.334 -52 104.001c-21.333 14.667 -44.666 22 -69.999 22c-43.333 0 -77 -18 -101 -54c-14 -22 -21 -46 -21 -72z
M32 246c0 77.333 29 141 87 191c52 44 114.333 66 187 66c84.667 0 153.667 -28.667 207 -86c44.667 -48 67 -105 67 -171c0 -77.333 -29 -141 -87 -191c-52 -44 -114.333 -66 -187 -66c-84.667 0 -153.667 28.667 -207 86c-44.667 48 -67 105 -67 171zM129 563l118 164h118
l118 -164h-102l-75 91l-75 -91h-102z" />
    <glyph glyph-name="otilde" unicode="&#xf5;" horiz-adv-x="612" 
d="M184 246c0 -44.667 17.333 -79.334 52 -104.001c21.333 -14.667 44.666 -22 69.999 -22c43.333 0 77 18 101 54c14 22 21 46 21 72c0 44.667 -17.333 79.334 -52 104.001c-21.333 14.667 -44.666 22 -69.999 22c-43.333 0 -77 -18 -101 -54c-14 -22 -21 -46 -21 -72z
M32 246c0 77.333 29 141 87 191c52 44 114.333 66 187 66c84.667 0 153.667 -28.667 207 -86c44.667 -48 67 -105 67 -171c0 -77.333 -29 -141 -87 -191c-52 -44 -114.333 -66 -187 -66c-84.667 0 -153.667 28.667 -207 86c-44.667 48 -67 105 -67 171zM298 596
c-32 15.333 -55 23 -69 23c-30 -0.666992 -59 -17.334 -87 -50.001l-2 1v113c25.333 24 55 36.333 89 37c23.333 -0.666992 51.666 -8.66699 84.999 -24c32 -15.333 55 -23 69 -23c30 0.666992 59 17.334 87 50.001l2 -1v-113c-25.333 -24 -55 -36.333 -89 -37
c-23.333 0.666992 -51.666 8.66699 -84.999 24z" />
    <glyph glyph-name="odieresis" unicode="&#xf6;" horiz-adv-x="612" 
d="M184 246c0 -44.667 17.333 -79.334 52 -104.001c21.333 -14.667 44.666 -22 69.999 -22c43.333 0 77 18 101 54c14 22 21 46 21 72c0 44.667 -17.333 79.334 -52 104.001c-21.333 14.667 -44.666 22 -69.999 22c-43.333 0 -77 -18 -101 -54c-14 -22 -21 -46 -21 -72z
M32 246c0 77.333 29 141 87 191c52 44 114.333 66 187 66c84.667 0 153.667 -28.667 207 -86c44.667 -48 67 -105 67 -171c0 -77.333 -29 -141 -87 -191c-52 -44 -114.333 -66 -187 -66c-84.667 0 -153.667 28.667 -207 86c-44.667 48 -67 105 -67 171zM194 571
c-29.333 0 -51.666 13 -66.999 39c-6.66699 12 -10 24.667 -10 38c0 29.333 13 51.666 39 66.999c12 6.66699 24.667 10 38 10c29.333 0 51.666 -13 66.999 -39c6.66699 -12 10 -24.667 10 -38c0 -29.333 -13 -51.666 -39 -66.999c-12 -6.66699 -24.667 -10 -38 -10z
M418 571c-29.333 0 -51.666 13 -66.999 39c-6.66699 12 -10 24.667 -10 38c0 29.333 13 51.666 39 66.999c12 6.66699 24.667 10 38 10c29.333 0 51.666 -13 66.999 -39c6.66699 -12 10 -24.667 10 -38c0 -29.333 -13 -51.666 -39 -66.999c-12 -6.66699 -24.667 -10 -38 -10
z" />
    <glyph glyph-name="divide" unicode="&#xf7;" horiz-adv-x="600" 
d="M220 567c0 30 13.333 52.333 40 67c12 6.66699 24.667 10 38 10c30.667 0 53.334 -13 68.001 -39c6.66699 -12 10 -24.667 10 -38c0 -30 -13.333 -52.333 -40 -67c-12 -6.66699 -24.667 -10 -38 -10c-30.667 0 -53.334 13 -68.001 39c-6.66699 12 -10 24.667 -10 38z
M54 307v110h492v-110h-492zM222 157c0 30 13.333 52.333 40 67c12 6.66699 24.667 10 38 10c30.667 0 53.334 -13 68.001 -39c6.66699 -12 10 -24.667 10 -38c0 -30 -13.333 -52.333 -40 -67c-12 -6.66699 -24.667 -10 -38 -10c-30.667 0 -53.334 13 -68.001 39
c-6.66699 12 -10 24.667 -10 38z" />
    <glyph glyph-name="oslash" unicode="&#xf8;" horiz-adv-x="612" 
d="M184 247c0.666992 -26.667 7 -50.333 19 -71l158 182c-16.667 9.33301 -35 14 -55 14c-44.667 0 -79 -18.667 -103 -56c-12.667 -20.667 -19 -43.667 -19 -69zM32 246.001c0 78 29.333 142 88 192c51.333 43.333 113.333 65 186 65c54 0 103 -12.667 147 -38l46 53
l49 -40l-44 -51c50.667 -50 76 -110.333 76 -181c0 -78 -29.333 -142 -88 -192c-51.333 -43.333 -113.333 -65 -186 -65c-54 0 -103 12.667 -147 38l-46 -53l-49 40l44 51c-50.667 50 -76 110.333 -76 181zM428 245.001c-0.666992 26.667 -7 50.333 -19 71l-158 -182
c16.667 -9.33301 35 -14 55 -14c44.667 0 79 18.667 103 56c12.667 20.667 19 43.667 19 69z" />
    <glyph glyph-name="ugrave" unicode="&#xf9;" horiz-adv-x="605" 
d="M110 38c-31.333 33.333 -47 83.666 -47 150.999v303h152v-280c0.666992 -34 7 -57.667 19 -71c13.333 -14.667 31.333 -22 54 -22c36 0.666992 69.333 15.334 100 44.001v329h152v-492h-150v46l-2 1c-45.333 -38.667 -95.333 -58 -150 -58
c-54 0.666992 -96.667 17 -128 49zM280 563l-116 164h136l84 -164h-104z" />
    <glyph glyph-name="uacute" unicode="&#xfa;" horiz-adv-x="605" 
d="M110 38c-31.333 33.333 -47 83.666 -47 150.999v303h152v-280c0.666992 -34 7 -57.667 19 -71c13.333 -14.667 31.333 -22 54 -22c36 0.666992 69.333 15.334 100 44.001v329h152v-492h-150v46l-2 1c-45.333 -38.667 -95.333 -58 -150 -58
c-54 0.666992 -96.667 17 -128 49zM440 727l-116 -164h-104l84 164h136z" />
    <glyph glyph-name="ucircumflex" unicode="&#xfb;" horiz-adv-x="605" 
d="M110 38c-31.333 33.333 -47 83.666 -47 150.999v303h152v-280c0.666992 -34 7 -57.667 19 -71c13.333 -14.667 31.333 -22 54 -22c36 0.666992 69.333 15.334 100 44.001v329h152v-492h-150v46l-2 1c-45.333 -38.667 -95.333 -58 -150 -58
c-54 0.666992 -96.667 17 -128 49zM125 563l118 164h118l118 -164h-102l-75 91l-75 -91h-102z" />
    <glyph glyph-name="udieresis" unicode="&#xfc;" horiz-adv-x="605" 
d="M110 38c-31.333 33.333 -47 83.666 -47 150.999v303h152v-280c0.666992 -34 7 -57.667 19 -71c13.333 -14.667 31.333 -22 54 -22c36 0.666992 69.333 15.334 100 44.001v329h152v-492h-150v46l-2 1c-45.333 -38.667 -95.333 -58 -150 -58
c-54 0.666992 -96.667 17 -128 49zM190 571c-29.333 0 -51.666 13 -66.999 39c-6.66699 12 -10 24.667 -10 38c0 29.333 13 51.666 39 66.999c12 6.66699 24.667 10 38 10c29.333 0 51.666 -13 66.999 -39c6.66699 -12 10 -24.667 10 -38c0 -29.333 -13 -51.666 -39 -66.999
c-12 -6.66699 -24.667 -10 -38 -10zM414 571c-29.333 0 -51.666 13 -66.999 39c-6.66699 12 -10 24.667 -10 38c0 29.333 13 51.666 39 66.999c12 6.66699 24.667 10 38 10c29.333 0 51.666 -13 66.999 -39c6.66699 -12 10 -24.667 10 -38
c0 -29.333 -13 -51.666 -39 -66.999c-12 -6.66699 -24.667 -10 -38 -10z" />
    <glyph glyph-name="yacute" unicode="&#xfd;" horiz-adv-x="558" 
d="M232 -220h-155l129 274l-200 438h160l51 -122l63 -156h2l67 159l52 119h151zM422 727l-116 -164h-104l84 164h136z" />
    <glyph glyph-name="thorn" unicode="&#xfe;" horiz-adv-x="604" 
d="M63 -220l-0.000976562 984h152v-295l2 -1c34 23.333 73.667 35 119 35c70 0 127.667 -26 173 -78c40 -47.333 60 -105 60 -173c0 -86.667 -30.667 -155 -92 -205c-47.333 -38.667 -103.666 -58 -168.999 -58c-32.667 0 -63 5.33301 -91 16l-2 -1v-224h-152zM214.999 351
v-221c24.667 -12 50.667 -18 78 -18c53.333 0 90.333 23.333 111 70c8 19.333 12 40.333 12 63c0 54 -18.667 92.333 -56 115c-18 10.667 -38.333 16 -61 16c-28 0 -56 -8.33301 -84 -25z" />
    <glyph glyph-name=".null" horiz-adv-x="0" 
 />
    <glyph glyph-name="nonmarkingreturn" horiz-adv-x="333" 
 />
    </font>
</defs>
</svg>
