<svg xmlns="http://www.w3.org/2000/svg" xmlns:xlink="http://www.w3.org/1999/xlink" width="257.828" height="46.751" viewBox="0 0 257.828 46.751">
  <defs>
    <clipPath id="clip-path">
      <path id="Trazado_130" data-name="Trazado 130" d="M60.918,72.909a.583.583,0,0,0,.319-.169l2.753-2.795a.621.621,0,0,0,.045-.057c1.246-1.27,2.509-2.522,3.85-3.683a9.074,9.074,0,0,1,14.046,3.247,9.329,9.329,0,0,1-2.337,10.795c-1.936,1.817-3.818,3.695-5.7,5.574-2.506,2.508-8.745,8.857-12.967,13.137C56.656,94.68,50.3,88.331,47.8,85.822c-1.878-1.88-3.759-3.757-5.7-5.574a9.328,9.328,0,0,1-2.337-10.795,9.074,9.074,0,0,1,14.046-3.247c2.3,1.987,4.366,4.237,6.511,6.394.057.057.11.1.161.147a.642.642,0,0,0,.1.075.432.432,0,0,0,.052.031.524.524,0,0,0,.069.035.407.407,0,0,0,.144.035.3.3,0,0,0,.073-.014m2.6-9.48q-.779.746-1.531,1.524c-.236.244-.619.563-.853.811-.07.075-.187.189-.307.294l-1.471-1.49,0,.021Q58.775,64,58.18,63.429c-4.362-4.177-9.46-5.415-15.11-3.3-5.732,2.149-8.727,6.567-9.092,12.613a13.225,13.225,0,0,0,3.928,10.277C40.113,85.3,42.4,87.5,44.635,89.744c2.409,2.411,8.817,8.776,12.946,12.921a.879.879,0,0,0,.263.363c.828.776,1.625,1.589,2.388,2.428.467.515.766.559,1.3.015,3.042-3.114,12.451-12.646,15.529-15.726C79.3,87.5,81.58,85.3,83.788,83.022a13.23,13.23,0,0,0,3.929-10.277c-.366-6.046-3.36-10.464-9.093-12.613a15.015,15.015,0,0,0-5.28-1.016,14.03,14.03,0,0,0-9.83,4.313" transform="translate(-33.952 -59.116)" fill="none"/>
    </clipPath>
    <linearGradient id="linear-gradient" x1="-0.138" y1="4.055" x2="-0.121" y2="4.055" gradientUnits="objectBoundingBox">
      <stop offset="0" stop-color="#dc2532"/>
      <stop offset="0.279" stop-color="#e64722"/>
      <stop offset="0.568" stop-color="#ef6416"/>
      <stop offset="0.818" stop-color="#f5760e"/>
      <stop offset="1" stop-color="#f77d0c"/>
    </linearGradient>
  </defs>
  <g id="Grupo_85" data-name="Grupo 85" transform="translate(-33.952 -59.092)">
    <path id="Trazado_112" data-name="Trazado 112" d="M214.718,78.76h6.1l2.759,7.808c.58,1.656,1.131,3.255,1.656,4.857h.056c.551-1.629,1.159-3.339,1.738-4.911l2.841-7.754h5.85l-7.643,19.976h-5.711Z" transform="translate(-121.175 -13.184)" fill="#434647"/>
    <rect id="Rect치ngulo_27" data-name="Rect치ngulo 27" width="5.683" height="19.976" transform="translate(117.026 65.576)" fill="#434647"/>
    <path id="Trazado_113" data-name="Trazado 113" d="M316.082,78.759h5.738c4.139,0,7.257.691,9.381,2.291,2.207,1.656,3.422,4.358,3.422,7.725a9.381,9.381,0,0,1-2.842,7.2c-1.987,1.792-5.05,2.759-9.852,2.759h-5.848Zm5.9,15.176c3.614,0,5.076-.718,5.932-1.738a5.306,5.306,0,0,0,1.021-3.422,4.785,4.785,0,0,0-1.711-4.084c-1.213-.911-3.035-1.132-5.27-1.132h-.193V93.935Z" transform="translate(-189.123 -13.184)" fill="#434647"/>
    <path id="Trazado_114" data-name="Trazado 114" d="M382.846,78.76h5.6l8.086,19.977h-6.182l-1.407-4.084H382.1l-1.461,4.084h-5.877Zm2.7,6.07c-.386,1.269-.772,2.428-1.241,3.724l-.69,1.9h3.863l-.662-1.9c-.469-1.352-.827-2.483-1.214-3.724Z" transform="translate(-228.459 -13.184)" fill="#434647"/>
    <path id="Trazado_115" data-name="Trazado 115" d="M458.739,77.841a11.89,11.89,0,0,1,5.353,1.269v1.877a9.775,9.775,0,0,0-5.353-1.573,8.719,8.719,0,1,0,.109,17.437,9.7,9.7,0,0,0,5.6-1.738v1.876a11.222,11.222,0,0,1-5.683,1.434,10.292,10.292,0,1,1-.028-20.582" transform="translate(-277.778 -12.568)" fill="#f77e0b"/>
    <path id="Trazado_116" data-name="Trazado 116" d="M514.149,65.575h1.6l8.361,19.977h-1.822l-2.456-5.96h-9.8l-2.455,5.96h-1.738Zm3.036,7.532c-.746-1.821-1.491-3.67-2.208-5.491h-.055c-.69,1.739-1.38,3.45-2.207,5.464l-2.042,4.966H519.2Zm-2.346-9.491h-1.27l2.374-4.525h1.793Z" transform="translate(-316.328)" fill="#f77e0b"/>
    <path id="Trazado_117" data-name="Trazado 117" d="M577.69,85.933c-.994-1.434-2.043-2.952-2.981-4.331l-.054.027c.028,1.6.028,3.367.028,5.1v12h-1.629V78.759h1.629l7.752,11.147,7.752-11.147h1.629V98.736h-1.684v-12c0-1.738,0-3.5.028-5.1l-.055-.027c-.937,1.379-1.988,2.9-2.979,4.331l-4.719,6.787Z" transform="translate(-361.381 -13.184)" fill="#f77e0b"/>
    <path id="Trazado_118" data-name="Trazado 118" d="M650.08,78.761h1.6l8.36,19.976h-1.821l-2.454-5.96h-9.8l-2.455,5.96h-1.739Zm3.034,7.532c-.745-1.82-1.489-3.669-2.208-5.491h-.054c-.691,1.739-1.379,3.45-2.208,5.464L646.6,91.232h8.527Z" transform="translate(-407.446 -13.185)" fill="#f77e0b"/>
    <path id="Trazado_119" data-name="Trazado 119" d="M708.989,78.76h5.353a9.94,9.94,0,0,1,5.517,1.186,4.962,4.962,0,0,1,2.318,4.305,5.086,5.086,0,0,1-2.1,4.221,7.214,7.214,0,0,1-3.228,1.187l6.678,9.077h-2.042L714.976,89.8h-4.3v8.939h-1.684Zm5.878,9.6c2.069,0,3.393-.359,4.358-1.159a3.835,3.835,0,0,0-.359-5.987c-1.075-.718-2.4-.911-4.635-.911h-3.559v8.057Z" transform="translate(-452.503 -13.184)" fill="#f77e0b"/>
    <path id="Trazado_120" data-name="Trazado 120" d="M767.518,78.761h1.6l8.36,19.976h-1.821l-2.455-5.96h-9.8l-2.454,5.96h-1.74Zm3.035,7.532c-.745-1.82-1.489-3.669-2.208-5.491h-.053c-.691,1.739-1.38,3.45-2.208,5.464l-2.042,4.967h8.526Z" transform="translate(-486.169 -13.185)" fill="#f77e0b"/>
    <path id="Trazado_121" data-name="Trazado 121" d="M560.817,180.776a4.555,4.555,0,0,0,2.595.865c1.034,0,1.765-.468,1.765-1.417,0-1.117-1.02-1.309-2.16-1.633-1.227-.348-2.417-.852-2.417-2.439,0-1.537,1.118-2.426,2.812-2.426a4.911,4.911,0,0,1,2.5.648v1.2a4.639,4.639,0,0,0-2.522-.8c-.973,0-1.657.42-1.657,1.308,0,1.081,1.008,1.261,2.066,1.562,1.261.36,2.51.865,2.51,2.523,0,1.585-1.165,2.522-2.906,2.522a5.434,5.434,0,0,1-2.583-.66Z" transform="translate(-353.032 -76.843)" fill="#434647"/>
    <path id="Trazado_122" data-name="Trazado 122" d="M588.154,173.726a4.481,4.481,0,1,1-4.421,4.48,4.371,4.371,0,0,1,4.421-4.48m0,7.9a3.426,3.426,0,1,0-3.279-3.424,3.288,3.288,0,0,0,3.279,3.424" transform="translate(-368.539 -76.843)" fill="#434647"/>
    <path id="Trazado_123" data-name="Trazado 123" d="M620.14,177.741c-.4-.564-.781-1.141-1.165-1.718l-.025.013c.012.516.025,1.177.025,1.885v4.9h-1.1v-8.7h1.1l3.087,4.421,3.087-4.421h1.093v8.7H625.1v-4.9c0-.708.012-1.369.023-1.885l-.023-.013c-.384.577-.769,1.154-1.166,1.718l-1.9,2.714Z" transform="translate(-391.422 -77.111)" fill="#434647"/>
    <path id="Trazado_124" data-name="Trazado 124" d="M655,173.726a4.481,4.481,0,1,1-4.421,4.48,4.369,4.369,0,0,1,4.421-4.48m0,7.9a3.426,3.426,0,1,0-3.28-3.424A3.287,3.287,0,0,0,655,181.63" transform="translate(-413.35 -76.843)" fill="#434647"/>
    <path id="Trazado_125" data-name="Trazado 125" d="M683.657,180.776a4.554,4.554,0,0,0,2.595.865c1.033,0,1.765-.468,1.765-1.417,0-1.117-1.021-1.309-2.161-1.633-1.226-.348-2.416-.852-2.416-2.439,0-1.537,1.117-2.426,2.811-2.426a4.909,4.909,0,0,1,2.5.648v1.2a4.638,4.638,0,0,0-2.522-.8c-.973,0-1.658.42-1.658,1.308,0,1.081,1.009,1.261,2.066,1.562,1.262.36,2.51.865,2.51,2.523,0,1.585-1.164,2.522-2.906,2.522a5.432,5.432,0,0,1-2.583-.66Z" transform="translate(-435.377 -76.843)" fill="#434647"/>
    <path id="Trazado_126" data-name="Trazado 126" d="M720.669,173.726a5.57,5.57,0,0,1,2.414.54V176.2a4.419,4.419,0,0,0-2.4-.758,2.692,2.692,0,0,0-2.835,2.752,2.722,2.722,0,0,0,2.907,2.774,4.369,4.369,0,0,0,2.462-.8v1.945a5.568,5.568,0,0,1-2.546.577,4.487,4.487,0,1,1,0-8.961" transform="translate(-457.16 -76.843)" fill="#434647"/>
    <path id="Trazado_127" data-name="Trazado 127" d="M747.663,173.726a5.574,5.574,0,0,1,2.414.54V176.2a4.421,4.421,0,0,0-2.4-.758,2.693,2.693,0,0,0-2.836,2.752,2.724,2.724,0,0,0,2.908,2.774,4.367,4.367,0,0,0,2.462-.8v1.945a5.573,5.573,0,0,1-2.547.577,4.487,4.487,0,1,1,0-8.961" transform="translate(-475.256 -76.843)" fill="#434647"/>
    <path id="Trazado_128" data-name="Trazado 128" d="M770.942,172.67h1.827v3.8l.023.011a2.832,2.832,0,0,1,1.8-.672,2.136,2.136,0,0,1,1.55.6,2.384,2.384,0,0,1,.515,1.755v3.688h-1.825V178.46a1.17,1.17,0,0,0-.2-.829.783.783,0,0,0-.625-.253,2.1,2.1,0,0,0-1.237.493v3.976h-1.827Z" transform="translate(-494.032 -76.136)" fill="#434647"/>
    <path id="Trazado_129" data-name="Trazado 129" d="M798.7,173.726a5.573,5.573,0,0,1,2.415.54V176.2a4.422,4.422,0,0,0-2.4-.758,2.693,2.693,0,0,0-2.836,2.752,2.723,2.723,0,0,0,2.907,2.774,4.368,4.368,0,0,0,2.463-.8v1.945a5.576,5.576,0,0,1-2.547.577,4.487,4.487,0,1,1,0-8.961" transform="translate(-509.468 -76.843)" fill="#434647"/>
    <g id="Grupo_64" data-name="Grupo 64" transform="translate(33.952 59.1)">
      <g id="Grupo_63" data-name="Grupo 63" clip-path="url(#clip-path)">
        <rect id="Rect치ngulo_28" data-name="Rect치ngulo 28" width="54.215" height="47.999" transform="translate(-0.213 -1.102)" fill="url(#linear-gradient)"/>
      </g>
    </g>
  </g>
</svg>
