<svg id="Grupo_58" data-name="Grupo 58" xmlns="http://www.w3.org/2000/svg" width="237.595" height="40.096" viewBox="0 0 237.595 40.096">
  <g id="Grupo_57" data-name="Grupo 57">
    <path id="Trazado_91" data-name="Trazado 91" d="M78.566,2129.291h5.618l2.542,6.7c.534,1.42,1.042,2.792,1.526,4.165H88.3c.507-1.4,1.067-2.863,1.6-4.211l2.619-6.65h5.39l-7.042,17.132H85.608Z" transform="translate(-23.651 -2123.73)" fill="#fff"/>
    <path id="Trazado_92" data-name="Trazado 92" d="M94.408,2129.291h5.236v17.132H94.408Z" transform="translate(-17.852 -2123.73)" fill="#fff"/>
    <path id="Trazado_93" data-name="Trazado 93" d="M101.109,2129.291H106.4c3.814,0,6.688.592,8.645,1.964a8.563,8.563,0,0,1,.533,12.8c-1.83,1.537-4.653,2.366-9.077,2.366h-5.389Zm5.441,13.015c3.33,0,4.677-.616,5.467-1.492a4.334,4.334,0,0,0,.94-2.934,3.983,3.983,0,0,0-1.576-3.5c-1.119-.781-2.8-.97-4.856-.97h-.178v8.9Z" transform="translate(-15.4 -2123.73)" fill="#fff"/>
    <path id="Trazado_94" data-name="Trazado 94" d="M121.608,2129.291h5.162l7.449,17.132h-5.695l-1.3-3.5h-6.307l-1.347,3.5h-5.415Zm2.492,5.206c-.355,1.088-.712,2.082-1.143,3.193l-.637,1.634h3.56l-.611-1.634c-.432-1.158-.762-2.129-1.117-3.193Z" transform="translate(-10.623 -2123.73)" fill="#fff"/>
    <path id="Trazado_95" data-name="Trazado 95" d="M140.107,2129.1a11.617,11.617,0,0,1,4.933,1.089v1.609a9.513,9.513,0,0,0-4.933-1.348c-4.806,0-8.035,3.29-8.035,7.478s3.229,7.477,8.136,7.477a9.424,9.424,0,0,0,5.162-1.49v1.609a10.965,10.965,0,0,1-5.239,1.229c-5.669,0-9.61-3.833-9.61-8.8C130.522,2133.077,134.31,2129.1,140.107,2129.1Z" transform="translate(-4.635 -2123.8)" fill="#fff"/>
    <path id="Trazado_96" data-name="Trazado 96" d="M150.963,2130.781h1.474l7.7,17.132h-1.677L156.2,2142.8h-9.027l-2.262,5.111h-1.6Zm2.8,6.46c-.687-1.562-1.374-3.147-2.035-4.709h-.051c-.635,1.49-1.27,2.958-2.034,4.685l-1.881,4.26h7.856Zm-2.162-8.14h-1.169l2.187-3.881h1.653Z" transform="translate(0.046 -2125.22)" fill="#fff"/>
    <path id="Trazado_97" data-name="Trazado 97" d="M162.529,2135.443c-.915-1.23-1.881-2.532-2.746-3.715l-.051.023c.025,1.373.025,2.888.025,4.378v10.294h-1.5v-17.132h1.5l7.144,9.559,7.146-9.559h1.5v17.132H174v-10.294c0-1.49,0-3.005.025-4.378l-.051-.023c-.865,1.183-1.83,2.485-2.746,3.715l-4.348,5.821Z" transform="translate(5.517 -2123.73)" fill="#fff"/>
    <path id="Trazado_98" data-name="Trazado 98" d="M181.195,2129.291h1.474l7.7,17.132H188.7l-2.263-5.111h-9.027l-2.262,5.111h-1.6Zm2.8,6.46c-.686-1.562-1.373-3.147-2.034-4.709h-.051c-.635,1.49-1.272,2.958-2.034,4.685l-1.882,4.26h7.857Z" transform="translate(11.11 -2123.73)" fill="#fff"/>
    <path id="Trazado_99" data-name="Trazado 99" d="M188.489,2129.291h4.933a9.728,9.728,0,0,1,5.086,1.018,4.192,4.192,0,0,1,2.135,3.691,4.27,4.27,0,0,1-1.932,3.62,6.941,6.941,0,0,1-2.975,1.018l6.152,7.786h-1.881l-6-7.667h-3.965v7.667h-1.552Zm5.416,8.234a6.314,6.314,0,0,0,4.017-.993,3.152,3.152,0,0,0-.331-5.135c-.992-.616-2.213-.781-4.271-.781h-3.28v6.909Z" transform="translate(16.581 -2123.73)" fill="#fff"/>
    <path id="Trazado_100" data-name="Trazado 100" d="M207.313,2129.291h1.474l7.7,17.132h-1.679l-2.262-5.111h-9.027l-2.262,5.111h-1.6Zm2.8,6.46c-.686-1.562-1.373-3.147-2.034-4.709h-.051c-.637,1.49-1.272,2.958-2.035,4.685l-1.881,4.26h7.857Z" transform="translate(20.67 -2123.73)" fill="#fff"/>
    <g id="Grupo_56" data-name="Grupo 56" transform="translate(159.992 32.112)">
      <path id="Trazado_101" data-name="Trazado 101" d="M155.688,2154.994a4.408,4.408,0,0,0,2.391.742c.952,0,1.627-.4,1.627-1.216,0-.958-.94-1.121-1.992-1.4-1.13-.3-2.225-.73-2.225-2.091,0-1.318,1.029-2.082,2.59-2.082a4.808,4.808,0,0,1,2.3.556v1.031a4.514,4.514,0,0,0-2.325-.691c-.9,0-1.527.36-1.527,1.123,0,.927.929,1.083,1.9,1.34,1.162.309,2.314.742,2.314,2.164,0,1.361-1.074,2.164-2.679,2.164a5.305,5.305,0,0,1-2.38-.567Z" transform="translate(-155.489 -2148.648)" fill="#fff"/>
      <path id="Trazado_102" data-name="Trazado 102" d="M164.706,2148.946a3.85,3.85,0,1,1-4.073,3.844A3.892,3.892,0,0,1,164.706,2148.946Zm0,6.779a2.937,2.937,0,1,0-3.022-2.936A2.919,2.919,0,0,0,164.706,2155.726Z" transform="translate(-153.606 -2148.648)" fill="#fff"/>
      <path id="Trazado_103" data-name="Trazado 103" d="M170.317,2152.131c-.366-.485-.72-.979-1.074-1.474l-.022.011c.011.443.022,1.01.022,1.616v4.2h-1.019v-7.46h1.019l2.845,3.792,2.844-3.792h1.008v7.46h-1.052v-4.2c0-.607.011-1.174.022-1.616l-.022-.011c-.354.495-.709.989-1.074,1.474l-1.749,2.327Z" transform="translate(-150.828 -2148.618)" fill="#fff"/>
      <path id="Trazado_104" data-name="Trazado 104" d="M179.572,2148.946a3.849,3.849,0,1,1-4.072,3.844A3.893,3.893,0,0,1,179.572,2148.946Zm0,6.779a2.937,2.937,0,1,0-3.022-2.936A2.92,2.92,0,0,0,179.572,2155.726Z" transform="translate(-148.165 -2148.648)" fill="#fff"/>
      <path id="Trazado_105" data-name="Trazado 105" d="M183.006,2154.994a4.415,4.415,0,0,0,2.39.742c.952,0,1.628-.4,1.628-1.216,0-.958-.941-1.121-1.993-1.4-1.13-.3-2.225-.73-2.225-2.091,0-1.318,1.03-2.082,2.59-2.082a4.8,4.8,0,0,1,2.3.556v1.031a4.511,4.511,0,0,0-2.325-.691c-.9,0-1.527.36-1.527,1.123,0,.927.93,1.083,1.9,1.34,1.162.309,2.313.742,2.313,2.164,0,1.361-1.072,2.164-2.677,2.164a5.311,5.311,0,0,1-2.381-.567Z" transform="translate(-145.491 -2148.648)" fill="#fff"/>
      <path id="Trazado_106" data-name="Trazado 106" d="M194.394,2148.946a5.463,5.463,0,0,1,2.225.464v1.659a4.288,4.288,0,0,0-2.213-.649,2.4,2.4,0,0,0-2.613,2.359,2.433,2.433,0,0,0,2.679,2.38,4.235,4.235,0,0,0,2.27-.69v1.669a5.467,5.467,0,0,1-2.348.494c-2.579,0-4.36-1.66-4.36-3.833S191.815,2148.946,194.394,2148.946Z" transform="translate(-142.846 -2148.648)" fill="#fff"/>
      <path id="Trazado_107" data-name="Trazado 107" d="M200.4,2148.946a5.463,5.463,0,0,1,2.225.464v1.659a4.289,4.289,0,0,0-2.214-.649,2.4,2.4,0,0,0-2.612,2.359,2.432,2.432,0,0,0,2.679,2.38,4.226,4.226,0,0,0,2.269-.69v1.669a5.457,5.457,0,0,1-2.347.494c-2.579,0-4.362-1.66-4.362-3.833S197.82,2148.946,200.4,2148.946Z" transform="translate(-140.648 -2148.648)" fill="#fff"/>
      <path id="Trazado_108" data-name="Trazado 108" d="M202.267,2148.728h1.683v3.255l.022.009a2.728,2.728,0,0,1,1.661-.576,2.05,2.05,0,0,1,1.429.515,1.953,1.953,0,0,1,.475,1.5v3.164h-1.683v-2.906a.952.952,0,0,0-.189-.711.748.748,0,0,0-.575-.216,2.03,2.03,0,0,0-1.141.422v3.411h-1.683Z" transform="translate(-138.368 -2148.728)" fill="#fff"/>
      <path id="Trazado_109" data-name="Trazado 109" d="M211.748,2148.946a5.463,5.463,0,0,1,2.225.464v1.659a4.288,4.288,0,0,0-2.213-.649,2.4,2.4,0,0,0-2.613,2.359,2.433,2.433,0,0,0,2.679,2.38,4.235,4.235,0,0,0,2.27-.69v1.669a5.467,5.467,0,0,1-2.348.494c-2.579,0-4.36-1.66-4.36-3.833S209.169,2148.946,211.748,2148.946Z" transform="translate(-136.494 -2148.648)" fill="#fff"/>
    </g>
    <path id="Trazado_110" data-name="Trazado 110" d="M87.91,2136.914c-.336-5.185-3.1-8.975-8.379-10.819a13.211,13.211,0,0,0-13.924,2.829c-.479.426-.949.863-1.411,1.306-.219.209-.571.483-.785.7-.064.064-.172.163-.283.253l-1.356-1.277v.018c-.355-.336-.716-.669-1.082-.994a13.211,13.211,0,0,0-13.924-2.829c-5.282,1.844-8.043,5.633-8.379,10.819a10.921,10.921,0,0,0,3.62,8.813c2.034,1.952,4.138,3.84,6.2,5.765,2.22,2.068,13.67,12.756,14.373,13.476.43.441.706.479,1.2.012,2.8-2.67,11.474-10.846,14.31-13.488,2.064-1.925,4.168-3.812,6.2-5.765A10.921,10.921,0,0,0,87.91,2136.914Zm-7.486,6.434c-1.784,1.559-3.519,3.169-5.248,4.781-2.31,2.151-8.059,7.6-11.95,11.267-3.94-3.669-9.794-9.115-12.1-11.267-1.731-1.612-3.464-3.222-5.25-4.781a7.619,7.619,0,0,1-2.153-9.257c2.206-4.629,8.82-6.106,12.943-2.785,2.116,1.7,4.023,3.635,6,5.483.052.049.1.09.146.127a.72.72,0,0,0,.092.064l.049.026a.43.43,0,0,0,.064.03.391.391,0,0,0,.133.031.564.564,0,0,0,.066-.012.541.541,0,0,0,.3-.145l2.537-2.4c.018-.018.026-.034.041-.05,1.149-1.089,2.313-2.163,3.548-3.158,4.123-3.321,10.738-1.844,12.944,2.785A7.621,7.621,0,0,1,80.424,2143.348Z" transform="translate(-38.364 -2125.218)" fill="#fff"/>
  </g>
</svg>
